<svg width="223" height="40" viewBox="0 0 223 40" fill="none" xmlns="http://www.w3.org/2000/svg">
<g clip-path="url(#clip0_254_1396)">
<mask id="mask0_254_1396" style="mask-type:luminance" maskUnits="userSpaceOnUse" x="0" y="-37" width="223" height="102">
<path d="M223 -36.2791H0V64.186H223V-36.2791Z" fill="white"/>
</mask>
<g mask="url(#mask0_254_1396)">
<path d="M3.8615 18.0987L0.00390625 28.2406H10.1837L14.0412 18.0987H3.8615Z" fill="#D52C00"/>
<mask id="mask1_254_1396" style="mask-type:luminance" maskUnits="userSpaceOnUse" x="-33" y="-51" width="289" height="130">
<path d="M-32.9258 -50.8689H255.081V78.7914H-32.9258V-50.8689Z" fill="white"/>
</mask>
<g mask="url(#mask1_254_1396)">
<path d="M25.1758 28.2406H31.118C33.6685 28.2406 35.9532 26.669 36.857 24.2928L39.213 18.0986H29.0333L25.1758 28.2406Z" fill="#D52C00"/>
</g>
<mask id="mask2_254_1396" style="mask-type:luminance" maskUnits="userSpaceOnUse" x="-33" y="-51" width="289" height="130">
<path d="M-32.9258 -50.8689H255.081V78.7914H-32.9258V-50.8689Z" fill="white"/>
</mask>
<g mask="url(#mask2_254_1396)">
<path d="M15.1028 -0.318008C12.5523 -0.318008 10.2678 1.2535 9.36386 3.62964L7.00781 9.82378H19.5941L12.5891 28.2405H22.7688L29.7737 9.82378H42.3598L46.2175 -0.318008H15.1028Z" fill="#D52C00"/>
</g>
<mask id="mask3_254_1396" style="mask-type:luminance" maskUnits="userSpaceOnUse" x="-33" y="-51" width="289" height="130">
<path d="M-32.9258 -50.8689H255.081V78.7914H-32.9258V-50.8689Z" fill="white"/>
</mask>
<g mask="url(#mask3_254_1396)">
<path d="M54.028 10.1594H58.1082V23.2785H54.028V10.1594ZM54.002 4.59351H58.1342V8.19942H54.002V4.59351Z" fill="#231F20"/>
</g>
<mask id="mask4_254_1396" style="mask-type:luminance" maskUnits="userSpaceOnUse" x="-33" y="-51" width="289" height="130">
<path d="M-32.9258 -50.8689H255.081V78.7914H-32.9258V-50.8689Z" fill="white"/>
</mask>
<g mask="url(#mask4_254_1396)">
<path d="M68.571 8.32542H61.8496V4.59349H79.5824V8.32542H72.8865V23.2785H68.571V8.32542Z" fill="#231F20"/>
</g>
<mask id="mask5_254_1396" style="mask-type:luminance" maskUnits="userSpaceOnUse" x="-33" y="-51" width="289" height="130">
<path d="M-32.9258 -50.8689H255.081V78.7914H-32.9258V-50.8689Z" fill="white"/>
</mask>
<g mask="url(#mask5_254_1396)">
<path d="M92.6861 13.52C95.0137 13.52 96.0601 12.9652 96.0601 10.8471C96.0601 8.67851 95.0658 8.12378 92.6334 8.12378H87.6385V13.52H92.6861ZM91.9794 17.0754H87.6385V23.2785H83.4531V4.59349H92.8169C98.9109 4.59349 100.375 7.11504 100.375 10.6958C100.375 13.2678 99.5121 15.6381 96.295 16.6215L100.14 23.2785H95.5629L91.9794 17.0754Z" fill="#231F20"/>
</g>
<mask id="mask6_254_1396" style="mask-type:luminance" maskUnits="userSpaceOnUse" x="-33" y="-51" width="289" height="130">
<path d="M-32.9258 -50.8689H255.081V78.7914H-32.9258V-50.8689Z" fill="white"/>
</mask>
<g mask="url(#mask6_254_1396)">
<path d="M104.82 16.1424V4.59355H109.109V15.6129C109.109 18.3867 109.816 19.9753 113.739 19.9753C117.636 19.9753 118.394 18.4876 118.394 15.6129V4.59355H122.553V16.1424C122.553 19.7231 121.847 23.6316 113.686 23.6316C105.5 23.6316 104.82 19.7231 104.82 16.1424Z" fill="#231F20"/>
</g>
<mask id="mask7_254_1396" style="mask-type:luminance" maskUnits="userSpaceOnUse" x="-33" y="-51" width="289" height="130">
<path d="M-32.9258 -50.8689H255.081V78.7914H-32.9258V-50.8689Z" fill="white"/>
</mask>
<g mask="url(#mask7_254_1396)">
<path d="M126.686 13.9234C126.686 7.21598 130.479 4.29088 136.912 4.29088C140.443 4.29088 142.692 5.1987 144.523 6.98904L141.568 9.83838C140.391 8.72892 139.004 8.07334 136.886 8.07334C132.753 8.07334 131.001 10.0906 131.001 13.9739C131.001 17.731 132.466 19.8744 136.912 19.8744C139.423 19.8744 140.626 19.0675 141.829 17.9832L144.654 20.6561C143.111 22.1943 141.045 23.5559 136.651 23.5559C129.406 23.5559 126.686 20.1014 126.686 13.9234Z" fill="#231F20"/>
</g>
<mask id="mask8_254_1396" style="mask-type:luminance" maskUnits="userSpaceOnUse" x="-33" y="-51" width="289" height="130">
<path d="M-32.9258 -50.8689H255.081V78.7914H-32.9258V-50.8689Z" fill="white"/>
</mask>
<g mask="url(#mask8_254_1396)">
<path d="M156.136 15.1338L153.39 18.2606V23.2785H149.152V4.59351H153.39V13.0409L160.739 4.59351H165.473L158.909 11.9818L166.415 23.2785H161.576L156.136 15.1338Z" fill="#231F20"/>
</g>
<mask id="mask9_254_1396" style="mask-type:luminance" maskUnits="userSpaceOnUse" x="-33" y="-51" width="289" height="130">
<path d="M-32.9258 -50.8689H255.081V78.7914H-32.9258V-50.8689Z" fill="white"/>
</mask>
<g mask="url(#mask9_254_1396)">
<path d="M170.887 4.59349H175.15V23.2785H170.887V4.59349Z" fill="#231F20"/>
</g>
<mask id="mask10_254_1396" style="mask-type:luminance" maskUnits="userSpaceOnUse" x="-33" y="-51" width="289" height="130">
<path d="M-32.9258 -50.8689H255.081V78.7914H-32.9258V-50.8689Z" fill="white"/>
</mask>
<g mask="url(#mask10_254_1396)">
<path d="M180.879 4.59349H185.509L194.427 16.3694V4.59349H198.507V23.2785H194.584L184.986 10.6706V23.2785H180.879V4.59349Z" fill="#231F20"/>
</g>
<mask id="mask11_254_1396" style="mask-type:luminance" maskUnits="userSpaceOnUse" x="-33" y="-51" width="289" height="130">
<path d="M-32.9258 -50.8689H255.081V78.7914H-32.9258V-50.8689Z" fill="white"/>
</mask>
<g mask="url(#mask11_254_1396)">
<path d="M202.926 13.9234C202.926 7.16552 206.587 4.29088 213.126 4.29088C217.049 4.29088 219.429 5.40041 220.973 6.93865L218.043 9.78805C217.049 8.88024 215.768 8.07334 213.1 8.07334C208.863 8.07334 207.215 10.0906 207.215 13.9739C207.215 18.0588 208.366 20.0762 213.048 20.0762C216.814 20.0762 217.912 18.8658 217.912 16.2433V15.8398H212.498V12.4105H222.149V15.4616C222.149 20.7821 219.952 23.5559 212.838 23.5559C205.097 23.5559 202.926 20.1265 202.926 13.9234Z" fill="#231F20"/>
</g>
<path d="M126.691 40.0939V29.0881H134.723V31.2868H129.135V33.6483H134.574V35.8165H129.135V40.0939H126.691ZM136.412 40.0939V29.0881H138.856V37.9847H144.28V40.0939H136.412ZM145.609 40.0939V29.0881H153.909V31.2868H148.052V33.4252H153.76V35.5493H148.052V37.9847H153.969V40.0939H145.609ZM155.839 40.0939V29.0881H164.139V31.2868H158.283V33.4252H163.99V35.5493H158.283V37.9847H164.199V40.0939H155.839ZM169.005 40.0939V31.2868H165.175V29.0881H175.278V31.2868H171.463V40.0939H169.005ZM184.873 40.2573C180.746 40.2573 179.196 38.2227 179.196 34.5835C179.196 30.633 181.357 28.9104 185.022 28.9104C187.034 28.9104 188.315 29.4448 189.359 30.4994L187.674 32.178C187.004 31.5242 186.214 31.1383 185.007 31.1383C182.653 31.1383 181.655 32.3265 181.655 34.6134C181.655 36.8263 182.489 38.0891 185.022 38.0891C186.453 38.0891 187.138 37.6137 187.823 36.9749L189.433 38.5496C188.554 39.4557 187.376 40.2573 184.873 40.2573ZM189.783 40.0939L194.208 29.0142H196.682L201.138 40.0939H198.605L197.889 38.2818H192.882L192.167 40.0939H189.783ZM193.657 36.277H197.114L195.385 31.8952L193.657 36.277ZM209.349 40.0939L207.307 36.4404H204.834V40.0939H202.45V29.0881H207.784C211.256 29.0881 212.091 30.5734 212.091 32.6826C212.091 34.1976 211.599 35.594 209.766 36.1732L211.957 40.0939H209.349ZM204.834 34.3462H207.71C209.036 34.3462 209.632 34.0193 209.632 32.7721C209.632 31.4944 209.065 31.1675 207.68 31.1675H204.834V34.3462ZM213.96 40.0939V29.0881H222.26V31.2868H216.404V33.4252H222.111V35.5493H216.404V37.9847H222.32V40.0939H213.96Z" fill="#D42C00"/>
</g>
</g>
<defs>
<clipPath id="clip0_254_1396">
<rect width="223" height="40" fill="white"/>
</clipPath>
</defs>
</svg>
