<svg width="560" height="80" viewBox="0 0 560 80" fill="none" xmlns="http://www.w3.org/2000/svg">
<g clip-path="url(#clip0_2515_880)">
<path fill-rule="evenodd" clip-rule="evenodd" d="M347.249 21.0557L343.028 35.9883L361.127 36L361.588 34.5073C365.168 21.5523 355.168 18.9009 351.139 18.9009H336.959C330.09 18.9009 321.509 19.7111 318.526 30.1657C315.987 39.2932 314.498 43.3443 318 47.9095C320.131 50.6771 325.316 51.4437 332.478 52.9132C337.852 54.0922 336.959 57.3303 336.064 60.7193C335.313 63.2197 333.749 64.695 331.207 64.695C329.567 64.695 327.628 63.5885 328.372 61.0126L329.839 55.431L311.432 55.4194L309.937 60.8645C307.696 68.0782 312.177 75.1409 322.026 75.1409H332.177C345.31 75.1409 351.795 71.7838 355.54 59.4647C356.879 55.0477 358.289 49.9075 356.211 46.289C353.376 41.355 341.491 39.8101 337.554 38.7821C335.02 38.117 335.718 35.5556 336.244 33.0436C337.394 28.9286 338.375 27.886 339.847 26.6169L345.863 20.7711C346.436 20.3732 347.388 20.4139 347.249 21.0557ZM64.3486 39.5342C69.9766 41.4451 77.591 46.016 73.9878 58.0476C70.1096 71.0026 61.7474 75.1438 48.0143 75.1438H-1.39062L44.7332 32.4309L36.3739 62.4676H40.8521C44.1361 62.4676 46.226 60.4028 47.1216 57.7543L62.0489 5.3418C72.7965 5.3418 84.7059 6.5586 82.35 21.831C80.3725 34.6554 71.7029 37.6524 64.455 38.9969C63.988 39.055 63.988 39.4964 64.3486 39.5342Z" fill="#231E20"/>
<path fill-rule="evenodd" clip-rule="evenodd" d="M61.2715 5.30078L11.2695 51.2401L24.3317 5.30078H61.2715Z" fill="#CA3132"/>
<path fill-rule="evenodd" clip-rule="evenodd" d="M128.456 75.1404L144.279 18.9033H162.786L146.963 75.1404H128.456ZM374.62 35.6975L381.774 30.0926H365.061L368.197 18.9004H406.255L402.976 30.0926H392.971L380.287 75.1404H361.777L371.094 42.0167C371.774 39.3682 372.61 37.2511 374.62 35.6975ZM486.77 21.0552L471.553 75.1404H490.057L502.002 32.4478C504.387 23.3203 499.912 18.9004 493.341 18.9004H461.698L445.878 75.1404H464.388L476.144 33.0286C477.447 28.8236 478.42 27.7374 479.741 26.5381L485.484 20.7212C485.951 20.4512 486.986 20.2653 486.77 21.0552ZM289.396 45.1763L293.15 43.0041C294.028 42.3855 296.638 41.0642 300.073 40.9857H308.583L305.447 51.8818H286.487L284.102 60.1293C283.502 62.3364 285.148 63.9569 286.937 63.9569H302.16L299.023 75.1433H277.531C267.679 75.1433 263.65 66.7535 265.441 60.8669L273.948 30.0955C276.635 19.789 285.592 18.9033 292.455 18.9033H314.843L311.707 30.0955H296.339C293.499 30.0955 292.009 32.0093 291.71 33.1855L288.453 44.3603C288.202 44.9614 288.27 45.7542 289.396 45.1763ZM251.052 21.0552L246.568 36.9026L265.125 36.8736L265.988 33.775C269.571 20.82 258.826 18.9033 254.794 18.9033H240.763C233.896 18.9033 224.94 19.789 222.256 30.0955L213.749 60.8669C211.511 68.0806 215.986 75.1433 225.838 75.1433H254.348L262.929 44.6913H244.413L238.971 63.9598H235.093C233.453 63.9598 231.658 62.3364 232.557 59.9841L239.997 33.0344C240.541 31.3472 241.49 28.2311 243.591 26.6223L249.621 20.8054C249.944 20.4512 251.268 20.2653 251.052 21.0552ZM117.005 21.0697L101.75 75.1433H120.407C120.407 75.1433 123.195 64.6771 125.332 57.6289C127.274 51.2255 120.035 47.6186 119.139 47.6186C118.241 47.6186 118.241 46.2915 119.139 46.2915C124.211 46.1434 129.29 45.2605 132.497 33.6298C136.272 19.9488 124.034 18.9062 119.512 18.9062H91.4512L75.4805 75.1462H94.1381L105.956 33.0489C106.878 29.7441 108.244 27.5951 109.627 26.599L115.693 20.8054C116.003 20.4512 117.188 20.3611 117.005 21.0697ZM526.169 45.1763L529.923 43.0041C530.801 42.3855 533.417 41.0642 536.846 40.9857H545.356L542.22 51.8818H523.267L520.875 60.1293C520.281 62.3364 521.922 63.9569 523.71 63.9569H538.933L535.797 75.1433H514.307C504.452 75.1433 500.424 66.7535 502.212 60.8669L510.722 30.0955C513.406 19.789 522.365 18.9033 529.232 18.9033H551.62L548.484 30.0955H533.11C530.275 30.0955 528.78 32.0093 528.487 33.1855L525.229 44.3603C524.978 44.9614 525.043 45.7542 526.169 45.1763ZM199.631 18.9033H172.614L156.647 75.1433H182.916C196.049 75.1433 202.617 70.7291 204.857 62.4845L212.764 34.5126C216.35 21.5547 203.66 18.9033 199.631 18.9033ZM198.15 21.0436L187.414 58.6424C185.475 64.8252 180.702 63.9452 178.461 63.9452L187.083 33.0141C188.094 29.84 189.283 27.7229 190.725 26.5758L196.72 20.788C197.193 20.3611 198.511 20.3234 198.15 21.0436ZM436.233 18.9033H424.738C417.874 18.9033 408.918 19.789 406.234 30.0955L397.724 60.8669C395.483 68.0806 399.964 75.1433 409.813 75.1433H419.518C432.651 75.1433 439.216 70.7291 441.456 62.4845L449.366 34.5126C452.952 21.5547 440.262 18.9033 436.233 18.9033ZM434.605 21.0261L423.411 60.8553C422.666 63.3557 420.576 64.6771 418.929 64.6771C417.289 64.6771 415.35 63.5038 416.245 61.1428L423.987 33.0199C425.234 28.9659 426.319 27.6503 427.567 26.5235L433.31 20.7067C433.709 20.3611 434.755 20.4366 434.605 21.0261Z" fill="#231E20"/>
</g>
<defs>
<clipPath id="clip0_2515_880">
<rect width="560" height="80" fill="white"/>
</clipPath>
</defs>
</svg>
