<svg width="360" height="80" viewBox="0 0 360 80" fill="none" xmlns="http://www.w3.org/2000/svg">
<path d="M142.436 66.9231L143.59 62.9488C144.743 58.718 147.564 57.3077 151.41 57.3077C155.256 57.3077 154.872 57.6924 155.641 58.2052L157.307 52.5641L160.384 51.7949L154.615 72.0513H152.051V70.8975C150.256 71.7949 148.59 72.3077 146.666 72.3077C142.692 72.3077 141.666 69.7436 142.564 66.9231H142.436ZM155 60.5129C154.102 60.0001 152.564 59.7436 151.666 59.7436C149.102 59.7436 147.307 60.5129 146.538 63.3334L145.513 66.7949C144.872 68.9744 145.513 70.1283 147.436 70.1283C149.359 70.1283 151.025 69.6154 152.692 68.8462L155.128 60.6411L155 60.5129Z" fill="#565656"/>
<path d="M170.512 60.0002C168.717 60.0002 166.666 60.513 164.999 61.5387L162.05 72.0515H159.102L163.204 57.5643H165.768V58.9746C166.666 58.2053 168.845 57.1797 171.281 57.1797L170.512 59.872V60.0002Z" fill="#565656"/>
<path d="M173.078 72.179H170.129L174.231 57.6918H177.18L173.078 72.179ZM177.949 54.9995H175.001L175.77 52.0508H178.719L177.949 54.9995Z" fill="#565656"/>
<path d="M184.486 72.1786H181.153L179.871 57.6914H182.82L183.204 66.5376C183.204 67.435 183.204 68.4606 183.204 69.6145C183.974 68.3324 184.486 67.435 185.128 66.5376L190.64 57.6914H193.717L184.102 72.1786H184.486Z" fill="#565656"/>
<path d="M195.128 72.179H192.18L196.282 57.6918H199.231L195.128 72.179ZM200 54.9995H197.051L197.821 52.0508H200.769L200 54.9995Z" fill="#565656"/>
<path d="M212.308 72.1804H209.359L212.18 62.4368C212.693 60.7701 212.565 59.7445 210.641 59.7445C208.718 59.7445 207.308 60.1291 205.513 61.0265L202.308 72.0522H199.359L203.462 57.565H206.026V58.7188C207.693 57.8214 209.616 57.3086 211.282 57.3086C214.744 57.3086 215.77 59.1035 215 61.7958L212.052 72.0522L212.308 72.1804Z" fill="#565656"/>
<path d="M217.309 66.6676L218.335 63.0778C219.489 58.9753 222.181 57.3086 226.027 57.3086C229.874 57.3086 229.489 57.6932 230.386 58.5906L230.899 57.565H233.463L229.104 72.6932C228.079 76.283 226.156 77.8214 221.027 77.8214C215.899 77.8214 217.95 77.6932 217.053 77.4368L217.694 75.2573C218.72 75.5137 220.13 75.6419 221.156 75.6419C224.361 75.6419 225.643 75.0009 226.284 72.565L226.668 71.1547C225.13 71.924 223.207 72.3086 221.412 72.3086C217.309 72.3086 216.412 69.7445 217.309 66.6676ZM229.745 60.7701C229.104 60.1291 227.566 59.7445 225.899 59.7445C224.232 59.7445 222.181 60.5137 221.284 63.4624L220.386 66.6676C219.745 68.9752 220.13 70.1291 222.438 70.1291C224.745 70.1291 225.771 69.7445 227.438 69.1035L229.745 60.8983V60.7701Z" fill="#565656"/>
<path d="M255.514 65.6412H245.129V66.154C244.232 68.4617 244.616 70.0002 248.334 70.0002C252.052 70.0002 251.283 69.872 252.95 69.3592L252.309 71.5387C250.898 72.0515 249.232 72.3079 247.95 72.3079C242.821 72.3079 241.026 70.1284 242.309 65.513L242.821 63.8464C244.232 58.9746 247.18 57.1797 251.026 57.1797C254.873 57.1797 257.437 59.231 255.898 64.3592L255.514 65.513V65.6412ZM253.334 63.5899C253.975 61.2823 253.334 59.6156 250.642 59.6156C247.95 59.6156 246.411 61.2822 245.77 63.4617C245.77 63.5899 253.334 63.5899 253.334 63.5899Z" fill="#565656"/>
<path d="M278.204 72.1804H275.255L278.076 62.3086C278.589 60.6419 278.332 59.7445 276.665 59.7445C274.999 59.7445 273.973 60.1291 272.178 61.0265V61.5393L268.973 72.1804H266.024L268.845 62.3086C269.358 60.6419 269.101 59.7445 267.435 59.7445C265.768 59.7445 264.871 60.1291 263.076 61.0265L259.871 72.0522H256.922L261.024 57.565H263.589V58.7188C265.127 57.8214 266.922 57.3086 268.46 57.3086C269.999 57.3086 271.665 57.8214 272.05 58.9752C274.101 57.9496 276.153 57.3086 277.563 57.3086C280.896 57.3086 281.794 58.7188 281.024 61.4112L277.948 72.0522L278.204 72.1804Z" fill="#565656"/>
<path d="M297.179 65.8971C296.026 70.1279 293.077 72.4355 288.718 72.4355C284.359 72.4355 282.308 69.9996 283.462 65.7689L283.974 63.974C285.128 59.7432 288.077 57.4355 292.436 57.4355C296.795 57.4355 298.846 59.8714 297.692 64.1022L297.179 65.8971ZM294.872 63.974C295.769 60.8971 294.615 59.615 292.179 59.615C289.744 59.615 287.949 60.7689 287.051 63.974L286.538 65.7689C285.641 68.8458 286.795 70.1279 289.231 70.1279C291.667 70.1279 293.59 68.974 294.487 65.7689L295 63.974H294.872Z" fill="#565656"/>
<path d="M310.771 59.999H306.668L304.36 68.2041C303.976 69.6144 304.104 70.1272 305.386 70.1272C306.668 70.1272 307.309 69.999 308.078 69.7426L307.437 71.9221C306.54 72.3067 305.258 72.5631 304.36 72.5631C301.796 72.5631 300.642 71.281 301.283 68.9733L303.847 60.1272H301.283L301.924 57.8195H304.488L305.386 54.8708L308.463 54.1016L307.437 57.8195H311.54L310.899 60.1272L310.771 59.999Z" fill="#565656"/>
<path d="M313.46 72.179H310.512L314.614 57.6918H317.563L313.46 72.179ZM318.332 54.9995H315.384L316.153 52.0508H319.101L318.332 54.9995Z" fill="#565656"/>
<path d="M332.562 65.8971C331.408 70.1279 328.46 72.4355 324.101 72.4355C319.742 72.4355 317.69 69.9996 318.844 65.7689L319.357 63.974C320.511 59.7432 323.46 57.4355 327.819 57.4355C332.178 57.4355 334.229 59.8714 333.075 64.1022L332.562 65.8971ZM330.255 63.974C331.152 60.8971 329.998 59.615 327.562 59.615C325.126 59.615 323.332 60.7689 322.434 63.974L321.921 65.7689C321.024 68.8458 322.178 70.1279 324.614 70.1279C327.049 70.1279 328.973 68.974 329.87 65.7689L330.383 63.974H330.255Z" fill="#565656"/>
<path d="M347.179 72.1804H344.23L347.051 62.4368C347.564 60.7701 347.436 59.7445 345.513 59.7445C343.589 59.7445 342.179 60.1291 340.384 61.0265L337.179 72.0522H334.23L338.333 57.565H340.897V58.7188C342.564 57.8214 344.487 57.3086 346.154 57.3086C349.615 57.3086 350.641 59.1035 349.872 61.7958L346.923 72.0522L347.179 72.1804Z" fill="#565656"/>
<path d="M343.078 27.6926L350.386 45.0002H338.078L331.411 27.0515L326.283 45.0002H314.488L324.873 8.97461H336.668L332.181 24.6156C332.181 24.6156 339.488 20.7695 345.129 8.97461H357.693C351.668 21.9233 343.078 27.6926 343.078 27.6926Z" fill="#3B3B3B"/>
<path d="M195.641 19.3582L188.462 44.9992H176.667L183.206 21.6659C183.718 19.6146 184.103 18.0762 183.334 17.3069C182.565 16.6659 181.539 16.5377 180.385 16.5377H174.231C174.231 16.6659 166.154 44.871 166.154 44.871H154.359L164.616 8.84541C166.026 8.84541 176.539 8.33258 187.052 8.07617C191.026 8.07617 193.847 8.84541 195.257 10.7685C196.667 12.5634 196.923 15.5121 195.77 19.23L195.641 19.3582Z" fill="#3B3B3B"/>
<path d="M223.848 27.6926L231.155 45.0002H218.848L212.181 27.0515L207.053 45.0002H195.258L205.642 8.97461H217.437L212.95 24.6156C212.95 24.6156 220.258 20.7695 225.899 8.97461H238.463C232.437 21.9233 223.848 27.6926 223.848 27.6926Z" fill="#3B3B3B"/>
<path d="M272.562 12.564C270.383 9.61533 266.024 8.20508 259.613 8.20508C247.306 8.20508 239.485 13.7179 236.408 24.4871L234.87 29.7435C233.46 34.8717 233.716 38.8461 235.767 41.5384C237.947 44.4871 242.306 45.8974 248.716 45.8974C261.024 45.8974 268.844 40.3846 271.921 29.6153L273.46 24.3589C274.87 19.2307 274.613 15.2564 272.562 12.564ZM261.408 24.8717L260.126 29.2307C258.46 34.9999 255.767 37.4358 251.28 37.4358C246.793 37.4358 247.819 36.923 247.049 35.8974C246.024 34.6153 246.024 32.4358 247.049 29.1025L248.331 24.7435C249.998 18.9743 252.69 16.5384 257.178 16.5384C261.665 16.5384 260.639 17.0512 261.408 18.0769C262.434 19.3589 262.434 21.5384 261.408 24.8717Z" fill="#3B3B3B"/>
<path d="M314.23 12.564C312.051 9.61533 307.692 8.20508 301.281 8.20508C288.974 8.20508 281.153 13.7179 278.076 24.4871L276.538 29.7435C275.128 34.8717 275.384 38.8461 277.435 41.5384C279.615 44.4871 283.974 45.8974 290.384 45.8974C302.692 45.8974 310.512 40.3846 313.589 29.6153L315.128 24.3589C316.538 19.2307 316.281 15.2564 314.23 12.564ZM303.076 24.8717L301.794 29.2307C300.128 34.9999 297.435 37.4358 292.948 37.4358C288.461 37.4358 289.487 36.923 288.717 35.8974C287.692 34.6153 287.692 32.4358 288.717 29.1025L289.999 24.7435C291.666 18.9743 294.358 16.5384 298.846 16.5384C303.333 16.5384 302.307 17.0512 303.076 18.0769C304.102 19.3589 304.102 21.5384 303.076 24.8717Z" fill="#3B3B3B"/>
<path d="M154.488 12.949C153.591 11.2823 151.924 10.1285 149.36 9.23105C147.437 8.59002 145.001 8.33362 142.052 8.20541C142.052 8.20541 131.411 8.0772 125.129 9.23105L123.078 16.4105C129.488 15.6413 135.514 15.5131 138.078 15.5131C140.898 15.5131 142.308 16.0259 142.949 16.7952C143.462 17.5644 143.591 18.59 142.949 20.6413L142.565 22.0516H138.078C125.514 22.0516 118.078 23.59 115.898 32.0516C115.001 35.2567 115.385 38.7182 117.308 41.0259C119.232 43.59 121.924 44.8721 126.539 44.8721H147.693L154.488 21.4105C155.642 17.6926 155.642 14.8721 154.488 12.8208V12.949ZM138.078 37.6926H132.308C130.898 37.8208 129.488 37.949 128.462 36.7952C127.693 36.0259 127.308 34.7439 127.565 33.4618C128.334 29.8721 132.565 29.231 136.026 29.231H140.642L138.206 37.6926H138.078Z" fill="#3B3B3B"/>
<path d="M105.899 8.97461L102.052 22.5644H91.4115L95.2576 8.97461H83.3345L73.0781 45.0002H85.0012L89.1038 30.7695H99.7448L95.6422 45.0002H107.565L117.822 8.97461H105.899Z" fill="#3B3B3B"/>
<path d="M66.1529 3.97516C64.8709 16.5393 57.1786 27.3085 46.2811 33.0777C46.0247 33.2059 45.6401 32.8213 45.8965 32.5649C54.2299 25.6418 59.7427 15.3854 60.2555 3.84695H49.6145C48.3324 13.5905 42.1786 21.9239 33.5888 26.1546C33.3324 26.2829 33.076 25.8982 33.3324 25.6418C39.4863 20.129 43.5888 12.4367 44.1017 3.71875H33.4606C32.6914 8.20593 30.3837 12.0521 27.5632 15.2572C20.3837 23.0777 8.71705 23.9752 3.07602 23.5905C3.07602 23.5905 2.81961 23.5905 2.69141 23.7187C2.69141 23.9751 2.81961 24.1034 2.81961 24.1034C12.1786 29.3598 19.6145 34.3598 33.2042 44.3598C36.5376 46.7957 39.7427 47.5649 42.9478 46.7957C64.1017 41.7957 76.4094 19.8726 76.5376 3.84695H65.8965L66.1529 3.97516Z" fill="#EB6824"/>
</svg>
