<svg width="130" height="36" viewBox="0 0 130 36" fill="none" xmlns="http://www.w3.org/2000/svg">
<g clip-path="url(#clip0_3_60)">
<path fill-rule="evenodd" clip-rule="evenodd" d="M80.6119 13.5008L79.632 17.0474L83.8336 17.0501L83.9406 16.6956C84.7716 13.6188 82.4502 12.9891 81.5149 12.9891H78.2233C76.6286 12.9891 74.6366 13.1815 73.9442 15.6645C73.3547 17.8322 73.0089 18.7944 73.822 19.8786C74.3168 20.5359 75.5204 20.718 77.183 21.067C78.4305 21.347 78.2233 22.1161 78.0154 22.921C77.8411 23.5148 77.4781 23.8652 76.8879 23.8652C76.5071 23.8652 76.057 23.6024 76.2299 22.9906L76.5702 21.665L72.2973 21.6622L71.9501 22.9554C71.43 24.6687 72.4702 26.3461 74.7566 26.3461H77.113C80.1618 26.3461 81.6673 25.5488 82.5367 22.623C82.8475 21.5739 83.1748 20.3532 82.6924 19.4938C82.0344 18.3219 79.2752 17.955 78.3612 17.7109C77.7731 17.5529 77.9351 16.9446 78.0572 16.348C78.3241 15.3707 78.552 15.1231 78.8937 14.8216L80.2901 13.4333C80.4232 13.3388 80.6441 13.3484 80.6119 13.5008ZM14.9386 17.8895C16.2451 18.3433 18.0128 19.4289 17.1763 22.2864C16.276 25.3632 14.3348 26.3468 11.1467 26.3468H-0.322266L10.3851 16.2025L8.44451 23.3362H9.48409C10.2464 23.3362 10.7316 22.8458 10.9395 22.2168L14.4048 9.7688C16.8998 9.7688 19.6644 10.0578 19.1175 13.685C18.6585 16.7308 16.6459 17.4426 14.9633 17.7619C14.8549 17.7757 14.8549 17.8805 14.9386 17.8895Z" fill="#8A8A8A"/>
<path fill-rule="evenodd" clip-rule="evenodd" d="M14.2238 9.75909L2.61621 20.6697L5.64849 9.75909H14.2238Z" fill="#8A8A8A"/>
<path fill-rule="evenodd" clip-rule="evenodd" d="M29.8204 26.3461L33.4936 12.9898H37.7898L34.1166 26.3461H29.8204ZM86.9657 16.9784L88.6263 15.6473H84.7465L85.4746 12.9891H94.3093L93.5483 15.6473H91.2255L88.2811 26.3461H83.9842L86.1471 18.4793C86.3049 17.8502 86.4991 17.3474 86.9657 16.9784ZM113 13.5009L109.468 26.3461H113.763L116.536 16.2066C117.09 14.0389 116.051 12.9891 114.526 12.9891H107.18L103.508 26.3461H107.805L110.534 16.3446C110.836 15.3459 111.062 15.0879 111.369 14.8031L112.702 13.4216C112.81 13.3574 113.051 13.3133 113 13.5009ZM67.1814 19.2297L68.0529 18.7138C68.2567 18.5668 68.8626 18.253 69.6599 18.2344H71.6355L70.9074 20.8222H66.5062L65.9524 22.781C65.8132 23.3052 66.1954 23.69 66.6105 23.69H70.1444L69.4163 26.3468H64.427C62.14 26.3468 61.2047 24.3542 61.6205 22.9562L63.5954 15.648C64.2191 13.2002 66.2983 12.9898 67.8916 12.9898H73.0888L72.3608 15.648H68.7933C68.1339 15.648 67.788 16.1025 67.7187 16.3818L66.9625 19.0359C66.9042 19.1786 66.92 19.3669 67.1814 19.2297ZM58.2801 13.5009L57.2392 17.2647L61.5471 17.2578L61.7475 16.5218C62.5791 13.445 60.0848 12.9898 59.1489 12.9898H55.8915C54.2975 12.9898 52.2183 13.2002 51.5953 15.648L49.6204 22.9562C49.101 24.6694 50.1399 26.3468 52.4269 26.3468H59.0452L61.0373 19.1145H56.739L55.4757 23.6907H54.5754C54.1946 23.6907 53.778 23.3052 53.9867 22.7465L55.7138 16.346C55.84 15.9452 56.0603 15.2052 56.5482 14.8231L57.948 13.4416C58.0228 13.3574 58.3302 13.3133 58.2801 13.5009ZM27.1621 13.5043L23.6206 26.3468H27.9519C27.9519 26.3468 28.599 23.8611 29.0951 22.1872C29.5459 20.6663 27.8654 19.8097 27.6575 19.8097C27.4489 19.8097 27.4489 19.4945 27.6575 19.4945C28.835 19.4593 30.0139 19.2497 30.7584 16.4874C31.6347 13.2381 28.7938 12.9905 27.744 12.9905H21.23L17.5225 26.3475H21.8537L24.5971 16.3494C24.8112 15.5645 25.1282 15.0541 25.4493 14.8176L26.8574 13.4416C26.9295 13.3574 27.2046 13.3361 27.1621 13.5043ZM122.147 19.2297L123.018 18.7138C123.222 18.5668 123.829 18.253 124.625 18.2344H126.601L125.873 20.8222H121.473L120.918 22.781C120.78 23.3052 121.161 23.69 121.576 23.69H125.11L124.382 26.3468H119.393C117.105 26.3468 116.17 24.3542 116.585 22.9562L118.561 15.648C119.184 13.2002 121.264 12.9898 122.858 12.9898H128.055L127.327 15.648H123.758C123.1 15.648 122.753 16.1025 122.685 16.3818L121.928 19.0359C121.87 19.1786 121.885 19.3669 122.147 19.2297ZM46.3432 12.9898H40.0714L36.3646 26.3468H42.4628C45.5115 26.3468 47.0362 25.2985 47.5564 23.3404L49.3919 16.697C50.2243 13.6195 47.2784 12.9898 46.3432 12.9898ZM45.9994 13.4981L43.5071 22.4279C43.057 23.8963 41.9488 23.6873 41.4287 23.6873L43.4303 16.3411C43.665 15.5873 43.9408 15.0845 44.2757 14.812L45.6673 13.4374C45.7771 13.3361 46.0831 13.3271 45.9994 13.4981ZM101.269 12.9898H98.6C97.0067 12.9898 94.9275 13.2002 94.3045 15.648L92.3289 22.9562C91.8088 24.6694 92.8491 26.3468 95.1355 26.3468H97.3882C100.437 26.3468 101.961 25.2985 102.481 23.3404L104.317 16.697C105.15 13.6195 102.204 12.9898 101.269 12.9898ZM100.891 13.494L98.2919 22.9534C98.119 23.5473 97.6339 23.8611 97.2517 23.8611C96.8708 23.8611 96.4207 23.5824 96.6286 23.0217L98.4258 16.3425C98.7153 15.3797 98.9672 15.0672 99.2567 14.7996L100.59 13.4181C100.683 13.3361 100.926 13.354 100.891 13.494Z" fill="#8A8A8A"/>
</g>
<defs>
<clipPath id="clip0_3_60">
<rect width="130" height="36" fill="white"/>
</clipPath>
</defs>
</svg>
