<svg width="372" height="80" viewBox="0 0 372 80" fill="none" xmlns="http://www.w3.org/2000/svg">
<g clip-path="url(#clip0_2515_872)">
<path d="M0 0V80C145.275 80 226.725 80 372 80V0H0Z" fill="#FF9900"/>
<path d="M342.062 37.6694C341.79 36.6272 341.382 35.4508 341.065 34.8626C341.065 34.8626 341.246 34.6802 341.609 34.9074C341.97 35.1346 344.283 36.7182 344.283 36.7182C345.462 38.4401 346.187 45.5051 346.231 48.0419C345.143 47.5432 343.603 46.6834 342.604 45.7303L342.062 37.6694ZM335.079 31.1007C333.172 29.0179 331.587 27.0693 330.044 24.7617C331.043 22.8574 331.769 17.83 331.315 15.8834C331.134 15.2932 329.5 13.1194 329.228 12.8031C328.82 12.3954 327.506 10.9008 326.871 10.9008C326.735 10.9008 326.599 10.9475 326.552 10.9922L326.735 12.6673C324.966 13.799 322.654 15.3399 320.567 16.8793C320.567 17.4675 320.612 18.3719 320.659 18.6921C320.975 18.9621 321.339 19.1893 321.747 19.327C322.563 19.1893 325.103 18.5544 325.781 18.6454L323.29 22.4053L320.432 24.4434L316.851 23.3122C316.624 23.2655 316.396 23.3122 316.26 23.4927L313.631 26.3481C313.495 26.4819 313.404 26.6177 313.404 26.9343L313.312 30.1528C313.312 30.1528 313.268 30.6495 313.268 31.193C313.268 33.503 314.309 34.5895 314.309 34.5895L316.035 32.0974C315.805 31.7364 315.397 30.7406 315.306 30.2885C315.306 30.1971 315.353 27.5245 315.353 27.5245L317.031 26.2994L321.475 29.4268C321.475 29.4268 322.699 31.6917 323.879 33.0506C324.649 34.0017 328.501 36.5833 330.361 37.6702C330.544 38.6681 330.952 40.2965 331.269 41.1562L336.712 46.729L333.492 50.7588C332.359 51.4848 331.268 52.7985 331.36 54.0216H335.08L335.488 51.892L339.932 46.9562C340.159 46.6846 340.159 46.5469 340.023 46.1392L338.752 41.8825C339.388 41.1566 340.745 39.3477 340.745 37.1719C340.744 33.2299 336.439 32.2344 335.079 31.1007ZM315.035 22.9931C314.899 23.0398 311.59 23.9443 311.59 23.9443C311.59 23.9443 310.047 24.5345 309.367 24.9865C308.687 25.4409 307.915 26.2092 307.871 26.6169L310.816 27.2961C311.271 26.797 311.771 26.2559 312.224 25.8905L312.904 25.5763L315.352 23.0838C315.352 23.0842 315.261 22.9484 315.035 22.9931ZM328.956 48.45L333.128 44.4649L334.851 46.1847L330.361 49.9893C330 50.4414 329.727 51.1673 329.5 51.6197H326.191C326.373 50.3966 328.095 48.8573 328.956 48.45ZM351.131 56.8734H306.827V55.4235H351.131V56.8734ZM226.973 36.1281C226.973 33.4127 226.11 31.2812 223.755 31.2812C221.394 31.2812 220.442 33.4123 220.442 36.1281V54.0208H223.211V56.8738H208.064V54.0208H210.874V29.3809H208.064V26.6169H219.989V31.2365H220.125C221.258 28.7017 223.889 26.0307 228.107 26.0307C232.551 26.0307 235.27 28.746 236.133 32.3234C236.451 33.729 236.542 36.0386 236.542 37.215V54.0208H240.168V56.8738H226.973V36.1281ZM165.438 36.1281C165.438 33.4127 164.578 31.2812 162.22 31.2812C159.861 31.2812 158.909 33.4123 158.909 36.1281V54.0208H161.676V56.8738H146.53V54.0208H149.341V29.3809H146.53V26.6169H158.456V31.2365H158.591C159.725 28.7017 162.356 26.0307 166.573 26.0307C171.017 26.0307 173.737 28.746 174.598 32.3234C174.917 33.729 175.008 36.0386 175.008 37.215V54.0208H178.636V56.8738H165.438L165.438 36.1281ZM253.001 29.3809V51.7551C253.001 53.2964 254 53.6598 254.95 53.6598C255.858 53.6598 256.722 53.3431 256.722 53.3431V56.1032C256.722 56.1032 254.906 57.2372 250.871 57.2372C246.156 57.2372 243.388 54.9252 243.388 50.0337V29.3813H240.168V27.3412C243.75 24.4897 247.923 21.225 251.233 18.4649H253.001V26.6173H257.628V29.3813L253.001 29.3809ZM63.9993 10.9004C63.9993 10.9004 71.3018 18.191 74.6556 21.9505V24.806C71.5292 21.4985 65.043 18.7341 59.0113 18.7341C45.3626 18.7341 36.7918 29.0175 36.7918 41.7452C36.7918 54.4261 44.9081 64.7095 59.0113 64.7095C66.0396 64.7095 71.6631 61.402 74.7915 58.0075V60.7228C70.5283 66.5671 62.7305 70.3718 53.0268 70.3718C35.6569 70.3718 23.6875 57.7803 23.6875 41.7456C23.6875 25.7128 36.9749 13.1637 53.0268 13.1637C57.1094 13.1637 60.7818 13.8429 63.9997 14.9766L63.9993 10.9004ZM203.484 48.8126C202.122 50.3966 199.993 51.6193 196.817 51.6193C194.05 51.6193 189.789 50.0784 189.608 43.0593H205.796C205.841 42.5158 205.886 41.4269 205.886 40.883C205.886 32.3697 202.397 26.0307 193.281 26.0307C184.121 26.0307 179.449 33.0494 179.449 41.7919C179.449 50.532 184.121 57.4169 193.281 57.4169C199.177 57.4169 202.894 54.6549 205.072 50.3048L203.484 48.8126ZM189.609 40.1148C189.609 32.1429 190.244 29.1537 192.963 29.1537C195.732 29.1537 196.276 32.0515 196.363 40.1148H189.609ZM56.11 41.6541C56.11 32.4149 56.9707 28.3387 60.099 28.3387C63.2274 28.3387 64.09 32.4149 64.09 41.6541C64.09 50.8958 63.2274 54.9695 60.099 54.9695C56.9707 54.9695 56.11 50.8958 56.11 41.6541ZM44.8633 41.7456C44.8633 50.8958 50.4845 58.3242 60.0994 58.3242C69.712 58.3242 75.3355 50.8958 75.3355 41.7456C75.3355 32.5953 69.712 25.1694 60.0994 25.1694C50.4845 25.169 44.8633 32.5953 44.8633 41.7456ZM96.7836 36.1281C96.7836 33.4127 95.923 31.2812 93.5657 31.2812C91.2088 31.2812 90.2546 33.4127 90.2546 36.1281V54.0208H93.0216V56.8738H77.8751V54.0208H80.6869V29.3813H77.8751V26.6173H89.8017V31.2369H89.9376C91.0705 28.7021 93.7016 26.0311 97.9181 26.0311C102.362 26.0311 105.084 28.7464 105.943 32.3238C106.26 33.7294 106.351 36.039 106.351 37.2154V54.0212H109.981V56.8742H96.7836V36.1281ZM130.658 18.5987C130.658 21.2713 133.062 23.0398 136.509 23.0398C139.954 23.0398 142.358 21.2713 142.358 18.5987C142.358 15.9297 139.954 14.1616 136.509 14.1616C133.062 14.1616 130.658 15.9297 130.658 18.5987ZM122.813 29.3813V51.7551C122.813 53.2964 123.81 53.6598 124.764 53.6598C125.67 53.6598 126.53 53.3431 126.53 53.3431V56.1032C126.53 56.1032 124.719 57.2372 120.684 57.2372C115.968 57.2372 113.201 54.9252 113.201 50.0341V29.3813H109.981V27.3412C113.564 24.4897 117.736 21.225 121.043 18.4649H122.813V26.6173H126.53V29.3813H122.813ZM299.71 54.0208H303.427V56.8738H290.14V18.191H286.831V15.431H299.71V54.0208H299.71ZM274.132 41.8813C273.86 41.6094 273.27 41.2468 272.045 41.2468C269.191 41.2468 268.556 44.0576 268.556 46.9554C268.556 49.8088 269.417 52.1189 271.865 52.1189C273.044 52.1189 273.771 51.6197 274.132 51.212V41.8813ZM274.542 53.2501H274.404C272.636 55.7402 270.279 57.4173 266.651 57.4173C261.708 57.4173 258.624 53.2054 258.624 48.1781C258.624 42.1085 262.932 38.2572 269.824 38.2572C272.636 38.2572 274.132 38.8941 274.132 38.8941V36.9882C274.132 33.3217 271.864 31.3727 268.556 31.3727C263.973 31.3727 261.618 34.9074 261.618 34.9074L259.94 32.8693C262.977 28.1562 267.646 26.0311 272.001 26.0311C279.35 26.0311 283.7 30.3768 283.7 36.9882V54.0208H286.782V56.8738H274.542V53.2501ZM128.89 56.8734V54.0204H131.657V29.3809H128.89V26.6169H141.225V54.0204H144.036V56.8734" fill="black"/>
</g>
<defs>
<clipPath id="clip0_2515_872">
<rect width="372" height="80" fill="white"/>
</clipPath>
</defs>
</svg>
