<svg width="130" height="36" viewBox="0 0 130 36" fill="none" xmlns="http://www.w3.org/2000/svg">
<path d="M119.537 17.1874C119.442 16.824 119.3 16.4138 119.189 16.2087C119.189 16.2087 119.252 16.145 119.379 16.2243C119.505 16.3035 120.313 16.8557 120.313 16.8557C120.725 17.4562 120.979 19.9198 120.994 20.8044C120.614 20.6305 120.076 20.3307 119.727 19.9983L119.537 17.1874ZM117.097 14.8968C116.431 14.1705 115.877 13.491 115.337 12.6863C115.686 12.0223 115.94 10.2692 115.781 9.59036C115.718 9.38455 115.147 8.6265 115.052 8.51622C114.91 8.37405 114.45 7.85286 114.229 7.85286C114.181 7.85286 114.133 7.86915 114.117 7.88475L114.181 8.46888C113.563 8.8635 112.755 9.40084 112.026 9.93763C112.026 10.1427 112.041 10.4581 112.058 10.5698C112.168 10.6639 112.295 10.7432 112.438 10.7912C112.723 10.7432 113.611 10.5218 113.848 10.5535L112.977 11.8646L111.978 12.5753L110.727 12.1809C110.647 12.1646 110.568 12.1809 110.52 12.2438L109.602 13.2395C109.554 13.2862 109.522 13.3335 109.522 13.444L109.49 14.5663C109.49 14.5663 109.475 14.7395 109.475 14.929C109.475 15.7345 109.839 16.1134 109.839 16.1134L110.442 15.2444C110.361 15.1185 110.219 14.7712 110.187 14.6136C110.187 14.5817 110.203 13.6498 110.203 13.6498L110.79 13.2226L112.343 14.3131C112.343 14.3131 112.771 15.1029 113.183 15.5768C113.452 15.9084 114.798 16.8087 115.448 17.1877C115.512 17.5357 115.655 18.1035 115.765 18.4033L117.668 20.3466L116.542 21.7518C116.146 22.005 115.765 22.4631 115.797 22.8896H117.097L117.24 22.147L118.793 20.4258C118.872 20.3311 118.872 20.2831 118.825 20.1409L118.381 18.6566C118.603 18.4034 119.077 17.7727 119.077 17.0139C119.077 15.6393 117.572 15.2921 117.097 14.8968ZM110.092 12.0696C110.045 12.0859 108.888 12.4013 108.888 12.4013C108.888 12.4013 108.349 12.6071 108.112 12.7647C107.874 12.9232 107.604 13.1911 107.589 13.3333L108.618 13.5701C108.777 13.3961 108.952 13.2074 109.11 13.08L109.347 12.9704L110.203 12.1012C110.203 12.1014 110.171 12.054 110.092 12.0696ZM114.957 20.9467L116.415 19.5571L117.017 20.1568L115.448 21.4835C115.322 21.6411 115.227 21.8943 115.147 22.0521H113.991C114.055 21.6256 114.656 21.0888 114.957 20.9467ZM122.706 23.8841H107.224V23.3785H122.706V23.8841ZM79.3178 16.6499C79.3178 15.7031 79.0164 14.9598 78.1934 14.9598C77.3683 14.9598 77.0355 15.7029 77.0355 16.6499V22.8893H78.0033V23.8842H72.71V22.8893H73.6919V14.2971H72.71V13.3333H76.8774V14.9442H76.9249C77.3208 14.0603 78.2402 13.1288 79.7144 13.1288C81.2674 13.1288 82.2175 14.0757 82.5189 15.3232C82.6303 15.8133 82.6621 16.6187 82.6621 17.0289V22.8893H83.9291V23.8842H79.3178V16.6499ZM57.8139 16.6499C57.8139 15.7031 57.5131 14.9598 56.6893 14.9598C55.865 14.9598 55.5322 15.7029 55.5322 16.6499V22.8893H56.4992V23.8842H51.2061V22.8893H52.1887V14.2971H51.2061V13.3333H55.374V14.9442H55.4209C55.8175 14.0603 56.7368 13.1288 58.2105 13.1288C59.7634 13.1288 60.7141 14.0757 61.0148 15.3232C61.1263 15.8133 61.1581 16.6187 61.1581 17.0289V22.8893H62.4259V23.8842H57.8137L57.8139 16.6499ZM88.4139 14.2971V22.0993C88.4139 22.6367 88.7628 22.7635 89.0949 22.7635C89.4121 22.7635 89.7143 22.653 89.7143 22.653V23.6155C89.7143 23.6155 89.0794 24.011 87.6696 24.011C86.0216 24.011 85.0545 23.2047 85.0545 21.499V14.2972H83.9293V13.5858C85.1808 12.5915 86.6393 11.453 87.7959 10.4906H88.4139V13.3334H90.0307V14.2972L88.4139 14.2971ZM22.3648 7.85272C22.3648 7.85272 24.9167 10.3951 26.0888 11.706V12.7018C24.9962 11.5484 22.7295 10.5844 20.6217 10.5844C15.852 10.5844 12.8568 14.1704 12.8568 18.6087C12.8568 23.0307 15.6931 26.6166 20.6217 26.6166C23.0778 26.6166 25.043 25.4633 26.1363 24.2796V25.2264C24.6464 27.2644 21.9214 28.5911 18.5303 28.5911C12.4602 28.5911 8.27734 24.2003 8.27734 18.6088C8.27734 13.018 12.9208 8.64196 18.5303 8.64196C19.957 8.64196 21.2404 8.87882 22.3649 9.27413L22.3648 7.85272ZM71.1095 21.0732C70.6335 21.6256 69.8893 22.0519 68.7796 22.0519C67.8126 22.0519 66.3235 21.5146 66.2605 19.0669H71.9175C71.9332 18.8774 71.9488 18.4977 71.9488 18.308C71.9488 15.3394 70.7294 13.1288 67.5438 13.1288C64.3429 13.1288 62.7103 15.5763 62.7103 18.625C62.7103 21.6728 64.3429 24.0736 67.5438 24.0736C69.6042 24.0736 70.9032 23.1105 71.6644 21.5935L71.1095 21.0732ZM66.2606 18.0401C66.2606 15.2603 66.4826 14.2179 67.4326 14.2179C68.4003 14.2179 68.5904 15.2284 68.621 18.0401H66.2606ZM19.6078 18.5769C19.6078 15.3551 19.9086 13.9337 21.0018 13.9337C22.0951 13.9337 22.3965 15.3551 22.3965 18.5769C22.3965 21.7996 22.0951 23.2202 21.0018 23.2202C19.9086 23.2202 19.6078 21.7996 19.6078 18.5769ZM15.6775 18.6088C15.6775 21.7996 17.6419 24.39 21.0019 24.39C24.3612 24.39 26.3264 21.7996 26.3264 18.6088C26.3264 15.418 24.3612 12.8285 21.0019 12.8285C17.6419 12.8284 15.6775 15.418 15.6775 18.6088ZM33.8217 16.6499C33.8217 15.7031 33.5209 14.9598 32.6971 14.9598C31.8735 14.9598 31.5401 15.7031 31.5401 16.6499V22.8893H32.507V23.8842H27.2139V22.8893H28.1965V14.2972H27.2139V13.3334H31.3818V14.9443H31.4293C31.8252 14.0604 32.7446 13.129 34.2181 13.129C35.7711 13.129 36.7224 14.0758 37.0226 15.3233C37.1333 15.8135 37.1653 16.6189 37.1653 17.0291V22.8895H38.4338V23.8844H33.8217V16.6499ZM45.6595 10.5372C45.6595 11.4692 46.4995 12.0859 47.7042 12.0859C48.9081 12.0859 49.7481 11.4692 49.7481 10.5372C49.7481 9.60651 48.9081 8.98993 47.7042 8.98993C46.4995 8.98993 45.6595 9.60651 45.6595 10.5372ZM42.9181 14.2972V22.0993C42.9181 22.6367 43.2665 22.7635 43.5998 22.7635C43.9163 22.7635 44.217 22.653 44.217 22.653V23.6155C44.217 23.6155 43.5842 24.011 42.1739 24.011C40.5259 24.011 39.5588 23.2047 39.5588 21.4991V14.2972H38.4335V13.5858C39.6858 12.5915 41.1436 11.453 42.2993 10.4906H42.918V13.3334H44.217V14.2972H42.9181ZM104.737 22.8893H106.036V23.8842H101.392V10.3951H100.236V9.43259H104.737V22.8893H104.737ZM95.7984 18.6562C95.7033 18.5613 95.4969 18.4349 95.069 18.4349C94.0715 18.4349 93.8496 19.415 93.8496 20.4255C93.8496 21.4206 94.1504 22.2261 95.0059 22.2261C95.4181 22.2261 95.6722 22.0521 95.7984 21.9099V18.6562ZM95.9417 22.6206H95.8934C95.2755 23.4889 94.4519 24.0738 93.184 24.0738C91.4564 24.0738 90.3788 22.605 90.3788 20.8519C90.3788 18.7354 91.8842 17.3924 94.2929 17.3924C95.2755 17.3924 95.7982 17.6145 95.7982 17.6145V16.9499C95.7982 15.6713 95.0058 14.9917 93.8495 14.9917C92.2482 14.9917 91.4253 16.2243 91.4253 16.2243L90.8385 15.5135C91.8999 13.87 93.5316 13.129 95.0534 13.129C97.6217 13.129 99.142 14.6444 99.142 16.9499V22.8893H100.219V23.8842H95.9417V22.6206ZM45.0416 23.8841V22.8892H46.0086V14.2971H45.0416V13.3333H49.3522V22.8892H50.3348V23.8841" fill="#8A8A8A"/>
</svg>
