<svg width="130" height="36" viewBox="0 0 130 36" fill="none" xmlns="http://www.w3.org/2000/svg">
<path d="M0 28V8H124.933V28H0ZM87.9251 26.5235V22.2609H70.3647V13.727H73.6684V19.9235H79.0105V13.727H87.9251V9.47652H1.4716V26.5235H87.9251ZM3.13213 18C3.13213 14.1652 6.2348 11.0522 10.0568 11.0522C11.7052 11.0522 13.2184 11.6296 14.4075 12.5948C15.5983 11.6296 17.1115 11.0522 18.7599 11.0522C22.5819 11.0522 25.6845 14.1652 25.6845 18C25.6845 21.8348 22.5819 24.9478 18.7599 24.9478C17.1115 24.9478 15.5983 24.3704 14.4075 23.4052C13.2184 24.3704 11.7052 24.9478 10.0568 24.9478C6.2348 24.9478 3.13213 21.8348 3.13213 18ZM13.3449 22.3652C12.4297 21.6713 11.2909 21.2591 10.0568 21.2591C8.8244 21.2591 7.6856 21.6713 6.7704 22.3652C7.6856 23.0591 8.8244 23.4713 10.0568 23.4713C11.2909 23.4713 12.4297 23.0591 13.3449 22.3652ZM22.0463 22.3652C21.1311 21.6713 19.994 21.2591 18.7599 21.2591C17.5257 21.2591 16.3852 21.6713 15.4717 22.3652C16.3852 23.0591 17.5257 23.4713 18.7599 23.4713C19.994 23.4713 21.1311 23.0591 22.0463 22.3652ZM51.2321 22.0435C50.4903 21.7374 49.9373 21.2696 49.5768 20.6348C49.3099 20.1687 49.1417 19.607 49.0724 18.9478C48.9043 19.9617 48.4501 20.7617 47.7117 21.3461C46.7567 22.1043 45.3284 22.4835 43.4304 22.4852C41.5307 22.4835 40.1024 22.1043 39.1473 21.3461C38.5389 20.8661 38.1247 20.2383 37.9028 19.4643C37.804 19.7774 37.6705 20.0643 37.5024 20.3287C37.0968 20.9617 36.4936 21.4417 35.6893 21.7687C34.8885 22.0957 33.8901 22.2591 32.6976 22.2609H27.2515V13.7148H32.6976C33.8867 13.7165 34.8816 13.8817 35.6841 14.2104C36.4867 14.5391 37.0933 15.0209 37.4989 15.6557C37.6688 15.9217 37.8023 16.2104 37.9011 16.5235C38.1247 15.7513 38.5389 15.1235 39.1473 14.6417C40.1024 13.8852 41.5307 13.5061 43.4304 13.5026C45.3284 13.5061 46.7567 13.8852 47.7117 14.6417C48.4016 15.1878 48.8436 15.9217 49.036 16.8452V13.727H52.3276V17.9009C52.3241 18.4348 52.3727 18.8713 52.4749 19.207C52.5772 19.5443 52.754 19.7913 53.0088 19.9478C53.2619 20.1061 53.612 20.1826 54.0609 20.1809C54.5116 20.1826 54.8617 20.1061 55.1113 19.9478C55.3627 19.7913 55.5395 19.5443 55.6383 19.207C55.7388 18.8713 55.7873 18.4348 55.7839 17.9009V13.727H59.0755V18.2052C59.0772 19.2 58.8987 20.0122 58.5416 20.6452C58.1828 21.2783 57.6333 21.7478 56.8932 22.0487C56.1513 22.3496 55.2084 22.4991 54.0609 22.4974C52.9187 22.4991 51.9757 22.3478 51.2321 22.0435ZM95.9573 21.5704C96.6871 21.1043 97.1863 20.4696 97.4567 19.6696C97.6907 20.3496 98.0841 20.9078 98.6371 21.3461C99.5921 22.1043 101.02 22.4835 102.918 22.4852C104.818 22.4835 106.246 22.1043 107.201 21.3461C108.157 20.5913 108.637 19.473 108.637 17.9948C108.637 16.5165 108.157 15.3983 107.201 14.6417C106.246 13.8852 104.818 13.5061 102.918 13.5026C101.02 13.5061 99.5921 13.8852 98.6371 14.6417C98.0807 15.0817 97.6855 15.6452 97.4532 16.3304C97.3319 15.9287 97.1464 15.5652 96.8968 15.2435C96.4583 14.6765 95.8291 14.2452 95.0075 13.9496C94.1859 13.6539 93.1805 13.5043 91.9915 13.5026C90.0935 13.5061 88.6652 13.8852 87.7101 14.6417C87.2993 14.967 86.9752 15.36 86.7412 15.8191H82.3021V16.8435H86.3859C86.3113 17.1983 86.2749 17.5826 86.2749 17.9948C86.2749 18.3252 86.2992 18.64 86.3477 18.9357H82.3021V20.0643H86.6892C86.9267 20.5687 87.2681 20.9965 87.7101 21.3461C88.6652 22.1043 90.0935 22.4835 91.9915 22.4852C93.6867 22.4817 95.0092 22.1774 95.9573 21.5704ZM59.5313 22.2609V13.727H66.3728C67.1095 13.7235 67.7196 13.7843 68.2015 13.9148C68.6833 14.0452 69.0421 14.2643 69.2779 14.5757C69.5119 14.887 69.6297 15.313 69.628 15.8539C69.628 16.2713 69.5327 16.64 69.3437 16.9565C69.1531 17.2713 68.874 17.5287 68.5048 17.7235C68.9919 17.8835 69.3593 18.1391 69.6072 18.4939C69.8551 18.847 69.9799 19.2922 69.9799 19.8296C69.9816 20.6348 69.7164 21.2417 69.1877 21.6487C68.6591 22.0574 67.8652 22.2609 66.8061 22.2609H59.5313ZM112.37 22.2609V13.727H109.067V22.2609H112.37ZM116.064 22.2609V17.2643L119.636 22.2609H123.327V13.727H120.141V18.64L116.849 13.727H112.961V22.2609H116.064ZM24.2129 18C24.2129 16.7617 23.8021 15.6191 23.1105 14.7026C22.4172 15.6191 22.0064 16.7617 22.0064 18C22.0064 19.2383 22.4172 20.3809 23.1105 21.2991C23.8021 20.3809 24.2129 19.2383 24.2129 18ZM6.80853 18C6.80853 16.7617 6.39773 15.6191 5.70613 14.7026C5.01453 15.6191 4.60373 16.7617 4.60373 18C4.60373 19.2383 5.01453 20.3809 5.70787 21.2974C6.39947 20.3809 6.80853 19.2383 6.80853 18ZM15.5116 18C15.5116 16.7617 15.1008 15.6191 14.4075 14.7026C13.7159 15.6191 13.3068 16.7617 13.3068 18C13.3068 19.2383 13.7159 20.3809 14.4075 21.2974C15.1008 20.3809 15.5116 19.2383 15.5116 18ZM45.0511 19.7009C45.4203 19.313 45.6075 18.7426 45.6092 17.9948C45.6075 17.2452 45.4203 16.6748 45.0511 16.2817C44.6819 15.8887 44.1411 15.6922 43.4304 15.6887C42.718 15.6922 42.1789 15.8887 41.808 16.2817C41.4388 16.6748 41.2516 17.2452 41.2499 17.9948C41.2516 18.7426 41.4388 19.313 41.808 19.7009C42.1789 20.0887 42.718 20.2852 43.4304 20.287C44.1411 20.2852 44.6819 20.0887 45.0511 19.7009ZM90.3708 19.7009C90.0016 19.313 89.8161 18.7426 89.8127 17.9948C89.8161 17.2452 90.0016 16.6748 90.3708 16.2817C90.74 15.8887 91.2808 15.6922 91.9915 15.6887C92.5444 15.6904 92.9795 15.8296 93.2967 16.1043C93.6139 16.3791 93.7993 16.7826 93.8548 17.313H97.24C97.214 17.5304 97.2019 17.7583 97.2019 17.9948C97.2019 18.313 97.2244 18.6157 97.2695 18.8991H93.8427C93.7421 19.3635 93.5341 19.7113 93.2204 19.9426C92.9067 20.1722 92.4976 20.287 91.9915 20.287C91.2808 20.2852 90.74 20.0887 90.3708 19.7009ZM101.298 19.7009C100.929 19.313 100.743 18.7426 100.74 17.9948C100.743 17.2452 100.929 16.6748 101.298 16.2817C101.669 15.8887 102.209 15.6922 102.918 15.6887C103.631 15.6922 104.172 15.8887 104.541 16.2817C104.91 16.6748 105.097 17.2452 105.099 17.9948C105.097 18.7426 104.91 19.313 104.541 19.7009C104.172 20.0887 103.631 20.2852 102.918 20.287C102.209 20.2852 101.669 20.0887 101.298 19.7009ZM65.8736 20.0974C66.0643 20.0678 66.2064 20.0035 66.3017 19.9043C66.3971 19.8035 66.4439 19.6504 66.4421 19.4417C66.4439 19.2313 66.3971 19.0748 66.3069 18.9722C66.2151 18.8678 66.0747 18.8 65.884 18.767C65.6933 18.7339 65.4507 18.72 65.1543 18.7235H62.8247V20.1357H65.1543C65.4437 20.1391 65.6829 20.1252 65.8736 20.0974ZM10.0568 19.7826C10.79 19.7826 11.4955 19.8974 12.1593 20.1096C11.9479 19.4435 11.8335 18.7357 11.8335 18C11.8335 17.2643 11.9479 16.5565 12.1593 15.8904C11.4955 16.1043 10.79 16.2174 10.0568 16.2174C9.32533 16.2174 8.61987 16.1043 7.956 15.8904C8.16573 16.5565 8.28013 17.2643 8.28013 18C8.28013 18.7357 8.16573 19.4435 7.956 20.1096C8.61987 19.8974 9.32533 19.7826 10.0568 19.7826ZM20.5365 18C20.5365 17.2643 20.6492 16.5565 20.8607 15.8904C20.1985 16.1043 19.4913 16.2174 18.7599 16.2174C18.0267 16.2174 17.3195 16.1043 16.6573 15.8904C16.8688 16.5565 16.9832 17.2643 16.9832 18C16.9832 18.7357 16.8688 19.4435 16.6573 20.1096C17.3195 19.8974 18.0267 19.7826 18.7599 19.7826C19.4913 19.7826 20.1985 19.8974 20.8607 20.1096C20.6492 19.4435 20.5365 18.7357 20.5365 18ZM33.5261 19.7948C33.8797 19.6609 34.1432 19.4417 34.3148 19.1357C34.4881 18.8296 34.5748 18.4209 34.5731 17.9113C34.5748 17.407 34.4899 17.0035 34.3183 16.6974C34.1467 16.3913 33.8849 16.1704 33.5313 16.033C33.1795 15.8957 32.7288 15.8278 32.1828 15.8296H30.5431V19.9913H32.1828C32.7253 19.9948 33.1725 19.9287 33.5261 19.7948ZM65.6847 16.8991C65.8528 16.873 65.9793 16.8157 66.0625 16.7287C66.144 16.64 66.1856 16.5061 66.1856 16.3235C66.1856 16.1357 66.144 15.9983 66.0591 15.9113C65.9759 15.8261 65.8493 15.7722 65.6795 15.7513C65.5079 15.7287 65.2947 15.72 65.0381 15.7235H62.8247V16.9357H65.0381C65.2981 16.9374 65.5148 16.927 65.6847 16.8991ZM13.3449 13.6348C12.4297 12.9409 11.2909 12.5287 10.0568 12.5287C8.8244 12.5287 7.6856 12.9409 6.7704 13.6348C7.68387 14.3287 8.82267 14.7409 10.0568 14.7409C11.2909 14.7409 12.4297 14.3287 13.3449 13.6348ZM22.0463 13.6348C21.1311 12.9409 19.994 12.5287 18.7599 12.5287C17.5257 12.5287 16.3869 12.9409 15.4717 13.6348C16.3869 14.3287 17.5257 14.7409 18.7599 14.7409C19.994 14.7409 21.1311 14.3287 22.0463 13.6348Z" fill="#8A8A8A"/>
<path d="M128.173 26.56H128.341L128.729 27.273H129.156L128.726 26.5322C128.8 26.527 128.868 26.5113 128.929 26.48C128.989 26.4504 129.038 26.4052 129.074 26.3409C129.111 26.28 129.13 26.1965 129.132 26.0922C129.13 25.9652 129.102 25.8626 129.048 25.7878C128.993 25.7148 128.913 25.6609 128.811 25.6296C128.709 25.5965 128.584 25.5826 128.438 25.5826H127.812V27.273H128.173V26.56ZM128.173 25.8713H128.423C128.469 25.8696 128.516 25.873 128.566 25.88C128.615 25.887 128.658 25.9043 128.691 25.9304C128.726 25.9583 128.745 25.9983 128.747 26.0557C128.747 26.1183 128.736 26.1652 128.716 26.1965C128.695 26.2278 128.665 26.2487 128.627 26.2591C128.589 26.2696 128.542 26.2748 128.488 26.273H128.173V25.8713ZM130 26.4296C130 26.2313 129.972 26.0504 129.917 25.8852C129.861 25.7217 129.785 25.5757 129.686 25.4487C129.587 25.3217 129.473 25.2157 129.341 25.127C129.21 25.04 129.066 24.9739 128.911 24.927C128.757 24.8835 128.598 24.8591 128.431 24.8591C128.263 24.8591 128.102 24.8835 127.948 24.927C127.793 24.9739 127.65 25.04 127.518 25.127C127.386 25.2157 127.27 25.3217 127.171 25.4487C127.072 25.5757 126.996 25.7217 126.941 25.8852C126.885 26.0504 126.857 26.2313 126.857 26.4296C126.857 26.6278 126.885 26.8087 126.941 26.9739C126.996 27.1374 127.072 27.2835 127.171 27.4104C127.27 27.5374 127.386 27.6452 127.518 27.7322C127.65 27.8209 127.793 27.887 127.948 27.9322C128.102 27.9774 128.263 28 128.431 28C128.598 28 128.757 27.9774 128.911 27.9322C129.066 27.887 129.21 27.8209 129.341 27.7322C129.473 27.6452 129.587 27.5374 129.686 27.4104C129.785 27.2835 129.861 27.1374 129.917 26.9739C129.972 26.8087 130 26.6278 130 26.4296ZM129.549 26.4296C129.548 26.6122 129.518 26.7757 129.459 26.9235C129.4 27.0713 129.319 27.2 129.216 27.3061C129.112 27.4122 128.993 27.4939 128.859 27.5513C128.726 27.6087 128.582 27.6383 128.431 27.6383C128.275 27.6383 128.13 27.6087 127.994 27.5513C127.859 27.4939 127.74 27.4122 127.637 27.3061C127.533 27.2 127.455 27.0713 127.396 26.9235C127.338 26.7757 127.308 26.6122 127.308 26.4296C127.308 26.2487 127.338 26.0835 127.396 25.9357C127.455 25.7896 127.533 25.6626 127.637 25.5565C127.74 25.4504 127.859 25.3687 127.994 25.313C128.13 25.2557 128.275 25.2261 128.431 25.2261C128.582 25.2261 128.726 25.2557 128.859 25.313C128.993 25.3687 129.112 25.4504 129.216 25.5565C129.319 25.6626 129.4 25.7896 129.459 25.9357C129.518 26.0835 129.548 26.2487 129.549 26.4296Z" fill="#8A8A8A"/>
</svg>
