<svg width="130" height="36" viewBox="0 0 130 36" fill="none" xmlns="http://www.w3.org/2000/svg">
<path d="M51.4349 27.7221L51.8516 26.2869C52.2682 24.7592 53.2867 24.2499 54.6756 24.2499C56.0645 24.2499 55.9256 24.3888 56.2034 24.574L56.8053 22.5369L57.9164 22.2592L55.833 29.574H54.9071V29.1573C54.259 29.4814 53.6571 29.6666 52.9627 29.6666C51.5275 29.6666 51.1571 28.7406 51.4812 27.7221H51.4349ZM55.9719 25.4073C55.6479 25.2221 55.0923 25.1295 54.7682 25.1295C53.8423 25.1295 53.1941 25.4073 52.9164 26.4258L52.546 27.6758C52.3145 28.4629 52.546 28.8795 53.2404 28.8795C53.9349 28.8795 54.5367 28.6943 55.1386 28.4166L56.0182 25.4536L55.9719 25.4073Z" fill="#8A8A8A"/>
<path d="M61.5745 25.2221C60.9263 25.2221 60.1856 25.4073 59.5837 25.7777L58.5189 29.574H57.4541L58.9356 24.3425H59.8615V24.8518C60.1856 24.574 60.9726 24.2036 61.8522 24.2036L61.5745 25.1758V25.2221Z" fill="#8A8A8A"/>
<path d="M62.5004 29.6204H61.4355L62.917 24.389H63.9818L62.5004 29.6204ZM64.2596 23.4167H63.1948L63.4726 22.3519H64.5374L64.2596 23.4167Z" fill="#8A8A8A"/>
<path d="M66.6198 29.6204H65.4161L64.9531 24.3889H66.0179L66.1568 27.5834C66.1568 27.9074 66.1568 28.2778 66.1568 28.6945C66.4346 28.2315 66.6198 27.9074 66.8513 27.5834L68.842 24.3889H69.9531L66.4809 29.6204H66.6198Z" fill="#8A8A8A"/>
<path d="M70.4623 29.6204H69.3975L70.8789 24.389H71.9438L70.4623 29.6204ZM72.2215 23.4167H71.1567L71.4345 22.3519H72.4993L72.2215 23.4167Z" fill="#8A8A8A"/>
<path d="M76.6662 29.6204H75.6013L76.6199 26.1019C76.805 25.5 76.7588 25.1296 76.0643 25.1296C75.3699 25.1296 74.8606 25.2685 74.2125 25.5926L73.0551 29.5741H71.9902L73.4717 24.3426H74.3976V24.7593C74.9995 24.4352 75.6939 24.25 76.2958 24.25C77.5458 24.25 77.9162 24.8981 77.6384 25.8704L76.5736 29.5741L76.6662 29.6204Z" fill="#8A8A8A"/>
<path d="M78.472 27.6296L78.8423 26.3333C79.259 24.8519 80.2312 24.25 81.6201 24.25C83.009 24.25 82.8701 24.3889 83.1942 24.713L83.3794 24.3426H84.3053L82.7312 29.8056C82.3609 31.1019 81.6664 31.6574 79.8146 31.6574C77.9627 31.6574 78.7035 31.6111 78.3794 31.5185L78.6109 30.7315C78.9812 30.8241 79.4905 30.8704 79.8609 30.8704C81.0183 30.8704 81.4812 30.6389 81.7127 29.7593L81.8516 29.25C81.2961 29.5278 80.6016 29.6667 79.9535 29.6667C78.472 29.6667 78.1479 28.7407 78.472 27.6296ZM82.9627 25.5C82.7312 25.2685 82.1757 25.1296 81.5738 25.1296C80.972 25.1296 80.2312 25.4074 79.9072 26.4722L79.5831 27.6296C79.3516 28.463 79.4905 28.8796 80.3238 28.8796C81.1572 28.8796 81.5275 28.7407 82.1294 28.5093L82.9627 25.5463V25.5Z" fill="#8A8A8A"/>
<path d="M92.2678 27.2592H88.5178V27.4444C88.1938 28.2777 88.3326 28.8332 89.6752 28.8332C91.0178 28.8332 90.7401 28.7869 91.3419 28.6018L91.1104 29.3888C90.6012 29.574 89.9993 29.6666 89.5364 29.6666C87.6845 29.6666 87.0364 28.8795 87.4993 27.2129L87.6845 26.611C88.1938 24.8518 89.2586 24.2036 90.6475 24.2036C92.0364 24.2036 92.9623 24.9444 92.4067 26.7962L92.2678 27.2129V27.2592ZM91.4808 26.5184C91.7123 25.6851 91.4808 25.0832 90.5086 25.0832C89.5364 25.0832 88.9808 25.6851 88.7493 26.4721C88.7493 26.5184 91.4808 26.5184 91.4808 26.5184Z" fill="#8A8A8A"/>
<path d="M100.463 29.6204H99.3977L100.416 26.0556C100.601 25.4537 100.509 25.1296 99.907 25.1296C99.3051 25.1296 98.9347 25.2685 98.2866 25.5926V25.7778L97.1292 29.6204H96.0644L97.0829 26.0556C97.2681 25.4537 97.1755 25.1296 96.5736 25.1296C95.9718 25.1296 95.6477 25.2685 94.9996 25.5926L93.8422 29.5741H92.7773L94.2588 24.3426H95.1847V24.7593C95.7403 24.4352 96.3885 24.25 96.944 24.25C97.4996 24.25 98.1014 24.4352 98.2403 24.8518C98.981 24.4815 99.7218 24.25 100.231 24.25C101.435 24.25 101.759 24.7593 101.481 25.7315L100.37 29.5741L100.463 29.6204Z" fill="#8A8A8A"/>
<path d="M107.315 27.3519C106.899 28.8797 105.834 29.7131 104.26 29.7131C102.686 29.7131 101.945 28.8334 102.362 27.3056L102.547 26.6575C102.963 25.1297 104.028 24.2964 105.602 24.2964C107.176 24.2964 107.917 25.176 107.5 26.7038L107.315 27.3519ZM106.482 26.6575C106.806 25.5464 106.389 25.0834 105.51 25.0834C104.63 25.0834 103.982 25.5001 103.658 26.6575L103.473 27.3056C103.149 28.4168 103.565 28.8797 104.445 28.8797C105.324 28.8797 106.019 28.4631 106.343 27.3056L106.528 26.6575H106.482Z" fill="#8A8A8A"/>
<path d="M112.222 25.2222H110.741L109.907 28.1851C109.768 28.6944 109.815 28.8796 110.278 28.8796C110.741 28.8796 110.972 28.8333 111.25 28.7407L111.018 29.5277C110.694 29.6666 110.231 29.7592 109.907 29.7592C108.981 29.7592 108.565 29.2962 108.796 28.4629L109.722 25.2685H108.796L109.028 24.4351H109.954L110.278 23.3703L111.389 23.0925L111.018 24.4351H112.5L112.268 25.2685L112.222 25.2222Z" fill="#8A8A8A"/>
<path d="M113.195 29.6204H112.13L113.611 24.389H114.676L113.195 29.6204ZM114.954 23.4167H113.889L114.167 22.3519H115.232L114.954 23.4167Z" fill="#8A8A8A"/>
<path d="M120.093 27.3519C119.676 28.8797 118.611 29.7131 117.037 29.7131C115.463 29.7131 114.722 28.8334 115.139 27.3056L115.324 26.6575C115.741 25.1297 116.806 24.2964 118.38 24.2964C119.954 24.2964 120.694 25.176 120.278 26.7038L120.093 27.3519ZM119.259 26.6575C119.583 25.5464 119.167 25.0834 118.287 25.0834C117.407 25.0834 116.759 25.5001 116.435 26.6575L116.25 27.3056C115.926 28.4168 116.343 28.8797 117.222 28.8797C118.102 28.8797 118.796 28.4631 119.12 27.3056L119.306 26.6575H119.259Z" fill="#8A8A8A"/>
<path d="M125.371 29.6204H124.306L125.325 26.1019C125.51 25.5 125.464 25.1296 124.769 25.1296C124.075 25.1296 123.566 25.2685 122.918 25.5926L121.76 29.5741H120.695L122.177 24.3426H123.103V24.7593C123.705 24.4352 124.399 24.25 125.001 24.25C126.251 24.25 126.621 24.8981 126.343 25.8704L125.279 29.5741L125.371 29.6204Z" fill="#8A8A8A"/>
<path d="M123.889 13.5558L126.527 19.8058H122.083L119.676 13.3243L117.824 19.8058H113.564L117.314 6.79651H121.574L119.953 12.4447C119.953 12.4447 122.592 11.0558 124.629 6.79651H129.166C126.99 11.4724 123.889 13.5558 123.889 13.5558Z" fill="#8A8A8A"/>
<path d="M70.6476 10.5463L68.055 19.8056H63.7958L66.1569 11.3796C66.3421 10.6389 66.481 10.0833 66.2032 9.80556C65.9254 9.57408 65.555 9.52779 65.1384 9.52779H62.9162C62.9162 9.57408 59.9995 19.7593 59.9995 19.7593H55.7402L59.4439 6.75001C59.9532 6.75001 63.7495 6.56482 67.5458 6.47223C68.981 6.47223 69.9995 6.75001 70.5088 7.44445C71.018 8.0926 71.1106 9.15741 70.6939 10.5L70.6476 10.5463Z" fill="#8A8A8A"/>
<path d="M80.8329 13.5558L83.4718 19.8058H79.0273L76.6199 13.3243L74.768 19.8058H70.5088L74.2588 6.79651H78.518L76.8977 12.4447C76.8977 12.4447 79.5366 11.0558 81.5736 6.79651H86.1106C83.9347 11.4724 80.8329 13.5558 80.8329 13.5558Z" fill="#8A8A8A"/>
<path d="M98.426 8.09269C97.639 7.02787 96.0649 6.51862 93.7501 6.51862C89.3056 6.51862 86.4815 8.50936 85.3704 12.3982L84.8149 14.2964C84.3056 16.1482 84.3982 17.5834 85.139 18.5557C85.926 19.6205 87.5001 20.1297 89.8149 20.1297C94.2593 20.1297 97.0834 18.139 98.1945 14.2501L98.7501 12.3519C99.2593 10.5001 99.1667 9.06491 98.426 8.09269ZM94.3982 12.5371L93.9353 14.1112C93.3334 16.1945 92.3612 17.0742 90.7408 17.0742C89.1204 17.0742 89.4908 16.889 89.213 16.5186C88.8427 16.0556 88.8427 15.2686 89.213 14.0649L89.676 12.4908C90.2778 10.4075 91.2501 9.52787 92.8704 9.52787C94.4908 9.52787 94.1204 9.71306 94.3982 10.0834C94.7686 10.5464 94.7686 11.3334 94.3982 12.5371Z" fill="#8A8A8A"/>
<path d="M113.472 8.09269C112.685 7.02787 111.111 6.51862 108.796 6.51862C104.352 6.51862 101.527 8.50936 100.416 12.3982L99.8608 14.2964C99.3515 16.1482 99.4441 17.5834 100.185 18.5557C100.972 19.6205 102.546 20.1297 104.861 20.1297C109.305 20.1297 112.129 18.139 113.24 14.2501L113.796 12.3519C114.305 10.5001 114.213 9.06491 113.472 8.09269ZM109.444 12.5371L108.981 14.1112C108.379 16.1945 107.407 17.0742 105.787 17.0742C104.166 17.0742 104.537 16.889 104.259 16.5186C103.889 16.0556 103.889 15.2686 104.259 14.0649L104.722 12.4908C105.324 10.4075 106.296 9.52787 107.916 9.52787C109.537 9.52787 109.166 9.71306 109.444 10.0834C109.814 10.5464 109.814 11.3334 109.444 12.5371Z" fill="#8A8A8A"/>
<path d="M55.7871 8.23146C55.463 7.62961 54.8612 7.21294 53.9352 6.88887C53.2408 6.65739 52.3612 6.56479 51.2964 6.5185C51.2964 6.5185 47.4538 6.4722 45.1852 6.88887L44.4445 9.48146C46.7593 9.20368 48.9352 9.15739 49.8612 9.15739C50.8797 9.15739 51.3889 9.34257 51.6204 9.62035C51.8056 9.89813 51.8519 10.2685 51.6204 11.0092L51.4815 11.5185H49.8612C45.3241 11.5185 42.6389 12.074 41.8519 15.1296C41.5278 16.287 41.6667 17.537 42.3612 18.3703C43.0556 19.2963 44.0278 19.7592 45.6945 19.7592H53.3334L55.7871 11.287C56.2038 9.94443 56.2038 8.9259 55.7871 8.18516V8.23146ZM49.8612 17.1666H47.7778C47.2686 17.2129 46.7593 17.2592 46.3889 16.8426C46.1112 16.5648 45.9723 16.1018 46.0649 15.6389C46.3427 14.3426 47.8704 14.1111 49.1204 14.1111H50.7871L49.9075 17.1666H49.8612Z" fill="#8A8A8A"/>
<path d="M38.2405 6.79651L36.8516 11.7039H33.009L34.3979 6.79651H30.0924L26.3887 19.8058H30.6942L32.1757 14.6669H36.0183L34.5368 19.8058H38.8424L42.5461 6.79651H38.2405Z" fill="#8A8A8A"/>
<path d="M23.8883 4.99066C23.4254 9.5277 20.6476 13.4166 16.7124 15.4999C16.6198 15.5462 16.4809 15.4073 16.5735 15.3147C19.5828 12.8147 21.5735 9.11103 21.7587 4.94437H17.9161C17.4532 8.46289 15.2309 11.4721 12.1291 12.9999C12.0365 13.0462 11.9439 12.9073 12.0365 12.8147C14.2587 10.824 15.7402 8.04622 15.9254 4.89807H12.0828C11.805 6.51844 10.9717 7.90733 9.95316 9.06474C7.36057 11.8888 3.14761 12.2129 1.11057 12.074C1.11057 12.074 1.01798 12.074 0.97168 12.1203C0.97168 12.2129 1.01798 12.2592 1.01798 12.2592C4.39761 14.1573 7.08279 15.9629 11.9902 19.574C13.1939 20.4536 14.3513 20.7314 15.5087 20.4536C23.1476 18.6481 27.5921 10.7314 27.6383 4.94437H23.7958L23.8883 4.99066Z" fill="#8A8A8A"/>
</svg>
