<svg width="130" height="36" viewBox="0 0 130 36" fill="none" xmlns="http://www.w3.org/2000/svg">
<g clip-path="url(#clip0_3_64)">
<path fill-rule="evenodd" clip-rule="evenodd" d="M7.99707 30.9507H124.265V11.3276H7.99707V30.9507Z" fill="#8A8A8A"/>
<path fill-rule="evenodd" clip-rule="evenodd" d="M102.642 27.1081H7.99707V28.2903H102.229L102.642 27.1081ZM43.0309 15.8786L39.8995 20.6071C39.8995 20.6071 40.1363 18.1241 40.1363 17.5337C40.1949 17.0608 40.1363 15.8786 39.0133 15.8786H34.1096L30.9195 24.6265H34.7597L37.0642 18.3023L36.5915 24.6265H40.0182L44.2125 18.4197L41.908 24.6265H45.7482L48.9976 15.8786H43.0309ZM63.9449 24.449C63.7082 24.5084 62.2905 24.8033 60.6955 24.8033C57.9782 24.922 55.5557 23.7993 55.5557 21.8486C55.497 18.3616 58.9825 16.4697 61.5817 15.9967C62.7046 15.7599 64.9491 15.4644 67.135 15.9967L65.836 19.0708C65.4806 18.2429 64.5357 18.2429 64.1216 18.2429C63.2361 18.1835 62.4086 18.479 61.8764 18.7159C60.5768 19.3063 59.4546 21.1975 61.2856 21.9654C62.2899 22.379 63.5902 22.0247 64.9485 21.848L63.9449 24.449ZM103.292 24.6265H99.0981L102.287 15.8786H106.542L103.292 24.6265ZM52.4243 24.6265H48.2301L51.4201 15.8786H55.6737L52.4243 24.6265ZM75.2888 15.8786L74.1665 19.0114H71.98L73.1616 15.8786H69.1434L65.894 24.6265H69.9116L71.0338 21.6705H73.1616L72.0981 24.6265H76.1156L79.3644 15.8786H75.2888ZM94.7258 21.7299L96.8516 15.8786H92.7174L89.5266 24.6265H97.7978L98.8607 21.7299H94.7258ZM116.998 15.8786L114.754 21.9067C114.813 21.3163 114.932 18.8926 114.99 17.5337C115.049 16.9427 114.932 16.5284 114.636 16.2329C114.282 15.8786 113.867 15.8786 113.867 15.8786H108.964L105.715 24.6265H109.319L111.563 18.4197L111.327 24.6265H117.294L120.542 15.8786H116.998ZM83.3819 22.2622L83.736 21.3163H88.345L89.1132 19.1288H84.5042L84.8596 18.1835H89.7033L90.5302 15.8786H81.7276L78.4788 24.6265H87.4588L88.2857 22.2622H83.3819Z" fill="white"/>
<path fill-rule="evenodd" clip-rule="evenodd" d="M31.2742 19.898C31.5109 19.4844 31.2155 18.7159 30.6834 18.1241C30.2106 17.5337 29.5605 17.3556 29.5018 17.0601C30.1519 15.7599 29.4424 14.6365 28.4382 14.1642C28.4681 13.851 28.4189 13.5353 28.295 13.2461C28.1712 12.9569 27.9767 12.7034 27.7294 12.509C27.9661 11.9767 28.2615 10.499 27.1386 9.61311C27.6114 7.78123 25.7203 6.71718 24.7161 6.65781C24.244 6.3029 23.5938 6.06674 22.7069 6.00737C23.3571 5.06207 23.1797 3.82058 22.4115 3.11144C22.4709 2.10677 21.7621 1.1608 20.7572 0.805893C20.4031 -0.0213235 18.512 0.0967572 18.3346 0.865272C17.2124 1.27888 16.5629 2.461 16.6809 3.58375C16.0308 4.29289 16.0308 5.47501 16.6809 6.30223C16.0901 6.24353 15.2626 6.42098 14.7312 6.65713H14.6718C14.199 6.42098 13.7263 6.30223 13.1948 6.42098C13.0768 6.30223 12.722 6.18415 12.486 6.12545C12.3059 5.8181 12.0385 5.57127 11.7178 5.41631C11.5998 4.88395 11.1857 4.47034 10.7729 4.29289C10.8316 3.87928 10.6549 3.4063 10.5362 3.16947C10.2995 2.81524 10.3588 2.22417 10.4182 2.10542C10.7136 1.80989 10.4769 1.51436 10.3595 1.39628C9.76871 0.805218 9.17792 1.10075 9.00054 1.39628C8.41042 0.332234 7.76027 0.0960798 7.40552 0.214157C6.8734 -0.199451 6.1059 0.0960808 6.1059 0.56839C5.75182 0.80522 5.5151 0.923298 6.04722 1.86859C5.9292 3.81923 6.16525 4.41029 7.46554 5.47434C7.05145 5.88795 6.87475 6.71516 7.22882 7.36559C7.1108 8.31089 7.64292 9.25686 8.29307 9.72984C8.47044 11.0894 9.76939 11.8573 10.6563 12.0347C11.2464 12.9213 12.0739 13.3349 12.9014 13.3943C12.9601 13.8079 13.0788 14.1628 13.3149 14.517C13.1375 15.2856 13.1375 15.9947 13.3735 16.6451C12.7827 17.2949 12.5467 18.3009 12.8414 19.3049C12.1326 20.1328 11.8965 21.491 12.3693 22.6151C12.3693 22.6151 12.1919 22.9107 12.0739 23.2055C11.6011 23.443 11.129 23.974 10.8923 24.6825C10.6563 25.2148 10.7743 25.924 10.8923 26.5157C10.1241 27.1655 9.65136 28.8206 11.0103 30.1215C10.7149 31.0661 10.0655 31.894 9.29662 32.8993C8.76517 33.6085 8.64714 33.9627 9.29662 34.7906C9.76939 35.4403 10.6556 35.9727 11.4238 35.9727C12.8414 36.0321 13.8456 35.7365 13.9643 34.6718C14.0824 34.0814 13.6689 32.8399 13.6689 32.5451C13.6096 32.2489 13.7276 31.7766 14.023 31.0087C15.3226 30.7125 15.9728 29.7672 16.0908 28.8213C17.0363 28.2889 17.7452 27.1662 17.3904 25.9247C17.5678 25.7479 17.6271 25.5704 17.7452 25.2749C17.7452 25.8073 18.0992 26.1615 18.2766 26.5164C17.7452 27.8753 18.454 29.1168 19.2808 29.6492C17.8632 31.7179 19.3989 32.7225 19.813 33.1361C20.3444 33.6091 20.4038 34.4964 21.2313 34.7913C21.9401 35.0274 24.1853 34.7913 24.5987 33.8453C24.7167 33.6091 24.8347 33.3143 24.7167 33.1361C24.7167 32.427 24.3033 31.954 23.5358 31.481C22.6496 31.0094 22.6496 31.1268 22.2355 29.8259C23.5945 29.1762 23.8312 27.6398 23.7719 27.0481C24.7167 25.866 24.658 24.862 24.1266 24.2122C24.304 23.6798 24.2446 23.2662 24.1266 22.8519C24.9534 22.1428 25.3082 21.0794 25.0128 19.9553C25.4856 19.2462 25.6036 18.4784 25.4262 17.5918C25.8396 18.2422 26.4891 18.4777 27.1979 18.4777C27.1979 18.4777 27.2573 18.6558 27.316 18.7732C27.0792 19.1868 27.1979 19.6598 27.7294 20.0147C27.7887 20.2522 27.9068 20.369 28.0248 20.4877C28.0248 20.6658 28.4976 21.4337 29.029 21.0201C29.0877 21.0201 29.6792 20.6065 29.6792 20.6065C30.2106 21.0207 31.3922 20.6665 31.2742 19.898Z" fill="#8A8A8A"/>
<path fill-rule="evenodd" clip-rule="evenodd" d="M25.7791 15.9967C27.2561 15.8787 28.6737 14.2235 27.3147 12.9227C27.1374 13.2182 26.7239 13.5137 26.4285 13.6318C26.3699 14.2822 25.9558 14.8139 25.7197 15.1095C25.7197 15.347 25.7791 15.938 25.7791 15.9967Z" fill="white"/>
<path fill-rule="evenodd" clip-rule="evenodd" d="M28.2026 14.7552C27.8479 15.7012 26.9023 16.2329 25.7801 16.4103C25.6027 17.1788 26.6076 18.3616 28.1433 17.6518C29.2655 17.1788 29.6796 15.4056 28.2026 14.7552ZM27.7892 18.952C27.6712 19.0708 27.6712 19.3656 27.8479 19.5424C27.8479 19.4844 27.9659 19.1288 28.0253 19.0114C27.9659 18.8926 27.8479 18.8926 27.7892 18.952ZM28.7341 19.6611C28.6747 19.4844 28.7341 19.2475 28.4387 19.1882C28.1433 19.0708 28.1433 20.016 28.3207 19.9567C28.4387 19.8393 28.5567 19.7205 28.7341 19.6611ZM29.1475 19.7799C28.7341 19.8986 28.4387 20.1935 28.6154 20.4297C28.6741 20.5484 28.7334 20.5484 28.9701 20.3703C29.0882 20.3123 29.3242 20.1341 29.3836 20.0748C29.3249 19.898 29.1475 19.7799 29.1475 19.7799ZM29.5023 17.9473C29.3842 17.8886 29.1482 17.7112 29.0295 17.5337C28.7341 17.8293 28.0839 18.1835 27.7892 18.2429C27.8479 18.2429 27.9072 18.5384 27.9666 18.6565C28.0846 18.6565 28.2033 18.7739 28.3207 18.8926C28.4387 18.8332 28.8521 18.8926 28.9708 19.3062C29.1482 19.425 29.5023 19.6018 29.6203 19.7198C30.0931 20.3116 30.4471 20.2522 30.5658 20.1335C30.9793 19.8379 30.3885 19.5417 30.0931 19.1281C29.9157 18.9513 29.4429 18.3016 29.4429 18.1241C29.4429 18.0647 29.5609 18.1241 29.6796 18.2429C29.6796 18.3022 30.3291 19.0708 30.6839 19.3656C30.3885 18.3616 29.5023 17.9473 29.5023 17.9473ZM20.1675 16.5878C25.7801 16.5284 26.4889 13.2182 25.7207 11.9186C24.0077 13.6918 18.2764 14.6965 15.4411 12.4503C14.9097 13.0414 14.2002 13.2188 13.6094 13.3369C13.7867 14.9914 16.8001 16.6471 20.1675 16.5878Z" fill="white"/>
<path fill-rule="evenodd" clip-rule="evenodd" d="M16.3855 9.55439C16.5035 10.6771 16.0314 11.6818 15.7947 12.0367C16.3268 12.4503 17.3897 13.2188 19.8122 13.2782C23.4757 13.3369 27.3746 11.5637 25.1888 8.54972C24.2439 9.79055 19.5762 10.8546 16.3855 9.55439ZM11.5417 9.19948C12.4279 8.37159 12.4866 7.30822 12.0732 6.53971C11.9551 6.42163 11.8364 6.24418 11.6597 6.1261C11.4824 7.66245 9.29655 8.84525 7.87891 7.84058C8.41036 10.0267 10.5962 10.0861 11.5417 9.19948Z" fill="white"/>
<path fill-rule="evenodd" clip-rule="evenodd" d="M13.3139 10.6772C14.6136 9.19951 13.3139 6.95334 12.7231 6.83527C13.1366 9.02206 10.9507 10.7359 9.00098 9.90865C9.47308 11.2682 11.7776 12.391 13.3139 10.6772Z" fill="white"/>
<path fill-rule="evenodd" clip-rule="evenodd" d="M11.542 12.0367C12.6642 13.2189 15.6776 13.1601 15.855 10.3816C15.973 8.49036 15.1461 7.42631 13.8458 7.07208C15.3822 9.96801 13.5504 11.9774 11.542 12.0367ZM13.9052 14.9914C13.3731 18.1835 17.6274 19.1875 20.1672 19.1281C24.4802 18.9513 25.4258 16.8826 25.189 15.6418C22.4711 17.7699 16.6818 17.5337 13.9052 14.9914Z" fill="white"/>
<path fill-rule="evenodd" clip-rule="evenodd" d="M16.0905 21.7299C18.395 22.2029 20.2261 21.1382 20.2261 19.6018C19.1031 19.6018 15.4997 19.5425 13.7866 17.1789C12.605 18.8333 14.0234 21.1382 16.0905 21.7299Z" fill="white"/>
<path fill-rule="evenodd" clip-rule="evenodd" d="M19.2209 21.7893C17.1531 22.8527 14.3171 22.0849 13.2535 19.8981C11.7179 22.3203 14.2578 24.5078 16.1482 24.3891C18.4527 24.2723 19.1029 22.7933 19.2209 21.7893Z" fill="white"/>
<path fill-rule="evenodd" clip-rule="evenodd" d="M12.8409 23.0901C12.132 24.3896 13.0182 25.8086 13.9638 26.1635C15.9722 26.932 17.3312 25.6311 17.2132 24.6851C15.6175 25.0401 13.9631 24.5671 12.8409 23.0901ZM11.2452 27.0487C10.3003 27.8186 10.9498 29.8859 12.3681 30.3589C14.3765 31.0681 15.2627 29.7092 15.3808 29C14.8493 29.1174 12.5455 29.5911 11.2452 27.0487Z" fill="white"/>
<path fill-rule="evenodd" clip-rule="evenodd" d="M13.8457 26.5178C12.7821 25.9854 12.132 25.1575 12.0733 24.0348C10.5376 25.5711 11.8366 27.9948 13.2549 28.4678C16.0908 29.4717 17.0951 27.0481 16.859 26.3397C15.7361 27.1082 14.3771 26.8126 13.8457 26.5178ZM24.0073 33.5512L24.1253 33.6105C23.8886 34.0835 22.1755 34.4971 21.4667 34.2009C20.6392 33.7887 20.8166 33.3157 20.2851 32.842C19.1035 31.7193 19.2809 31.2463 19.4583 30.6545C19.5169 30.359 19.6356 30.1816 19.8717 29.886C20.6985 30.1816 21.0533 30.1235 21.7621 29.9454C21.7621 30.0048 21.7621 30.1816 21.8215 30.2409C21.2893 30.3003 20.8166 30.4191 20.8166 30.4191L20.9939 30.8327C20.9939 30.8327 21.4074 30.7139 21.9388 30.6545C21.9388 30.6545 21.9982 30.9508 22.0568 31.0682C21.5841 31.0682 21.1706 31.2463 21.1706 31.2463L21.2887 31.6005C21.2887 31.6005 21.9381 31.4237 22.4109 31.4818C22.8837 31.8954 24.7741 32.3684 23.8292 33.3744C23.4752 33.7286 22.5883 33.846 21.8795 33.846V33.9648C21.9988 34.1429 23.2985 34.2009 24.0073 33.5512ZM23.1211 27.4624C22.5439 27.8937 21.8313 28.1036 21.1126 28.0541C20.1084 28.0541 19.3989 27.6405 18.8081 26.9908C18.4534 28.7633 19.5763 29.5912 20.8166 29.6499C23.0617 29.7686 23.1211 27.6999 23.1211 27.4624Z" fill="white"/>
<path fill-rule="evenodd" clip-rule="evenodd" d="M21.0525 27.6405C23.4751 27.6999 24.1839 25.6899 23.7111 24.8033C22.3522 26.4584 19.2208 26.1042 18.5706 24.0348C17.7445 25.5124 19.1028 27.6405 21.0525 27.6405Z" fill="white"/>
<path fill-rule="evenodd" clip-rule="evenodd" d="M21.407 25.453C22.5886 25.453 23.8882 24.6264 23.5928 23.1481C22.2339 24.0347 20.5201 23.976 19.3392 23.0901C19.2212 23.2669 19.0438 23.5617 18.9258 23.6805C19.1025 24.8032 20.2254 25.453 21.407 25.453Z" fill="white"/>
<path fill-rule="evenodd" clip-rule="evenodd" d="M19.93 21.3162C19.8714 21.3756 19.812 21.435 19.7527 21.435C19.7527 21.8486 19.6346 22.3796 19.5166 22.7345C21.171 24.1541 24.6564 23.2668 24.4204 20.3702C23.2388 21.5524 21.3483 21.8486 19.93 21.3162Z" fill="white"/>
<path fill-rule="evenodd" clip-rule="evenodd" d="M20.6986 19.6018C20.6986 20.1341 20.5213 20.6071 20.2265 21.0214C22.353 21.6712 25.0123 20.5484 24.8936 18.006C24.1848 18.6571 22.8845 19.4844 20.6986 19.6018ZM10.0056 7.60376C11.6006 6.89462 11.4819 5.23951 10.537 4.82591C10.3003 5.06206 10.3597 5.59442 10.3597 5.71183C10.3597 5.94865 9.94624 6.12543 9.88689 6.00735C9.76887 5.8299 10.1236 5.65312 9.94624 5.23884C9.82822 4.88461 10.2416 4.70716 10.2416 4.11542C10.2416 3.76119 9.94624 3.2295 9.94624 3.11075C9.76887 2.75584 9.76887 2.10608 10.0056 1.81055C9.82822 1.6331 9.59149 1.45565 9.41479 1.81055C9.11939 2.22416 9.23742 2.75585 9.41479 3.17013C9.41479 3.2295 9.11939 3.17013 9.00137 3.64311L8.88334 3.82056H8.76532C8.70597 3.46633 8.82399 3.28888 8.94269 3.05272C8.88334 2.99335 8.76532 2.69782 8.76532 2.16613C8.52859 1.457 7.99715 0.806555 7.6424 0.747854C7.9378 1.22084 8.46992 2.22551 8.52859 2.34359C8.64662 2.63912 8.41057 2.69782 8.41057 2.69782C7.99715 1.86993 7.58305 1.10209 7.2283 0.747179C6.99225 0.569726 6.7562 0.451652 6.63817 0.629105C6.7562 0.629105 6.87422 0.747181 6.99225 0.865933C7.347 1.33824 8.11517 2.87527 8.11517 2.87527C8.11517 2.87527 8.05649 2.93397 7.9378 2.93397C7.81977 2.93397 7.70107 2.69782 7.52437 2.28421C7.28765 1.92998 6.93357 1.33824 6.7562 1.16079C6.57882 0.924632 6.4608 0.983335 6.34277 1.10209C6.4608 1.27954 6.5795 1.51569 6.5795 1.69315C6.8749 1.57507 7.22897 1.8706 7.28832 2.16613C7.28832 2.40296 7.40635 3.1708 7.58372 3.40763C7.52437 3.40763 7.347 3.52571 7.347 3.52571C7.16962 3.34826 7.0516 2.52104 6.99225 2.22551C6.99225 2.10743 6.93357 1.98868 6.7562 1.92998C6.63817 1.92998 6.63817 1.98868 6.63817 2.04805C6.52015 3.70249 6.63817 4.1161 8.11517 5.23952C8.23319 5.29822 8.35189 5.53504 8.46992 5.77187C8.58794 5.94933 8.76532 6.24486 9.11939 6.18548L9.23742 6.30356C8.94202 6.59909 8.46924 6.42231 8.35122 6.30356C8.29254 6.18548 8.05582 5.83058 8.05582 5.83058C6.99225 6.89395 8.41057 8.3716 10.0056 7.60376ZM11.66 30.4777C11.0692 31.7786 10.4784 32.369 9.82889 33.3149C9.35612 33.9053 9.53349 34.2002 9.82889 34.6145C10.4197 35.2656 11.4239 35.6198 12.1921 35.383V35.3249C11.2465 35.383 10.4784 35.0287 10.0656 34.4383L10.1243 34.379C11.1879 35.2069 12.6055 34.9694 13.1376 34.6745C13.315 34.6151 13.3737 34.4383 13.3737 34.2609C13.315 33.7893 13.0783 33.0194 13.0196 32.6058C12.9603 32.3103 13.0783 31.6612 13.3737 30.952C12.9002 31.0101 11.9554 30.8913 11.66 30.4777ZM25.4257 8.01737C26.1939 8.54905 26.3112 9.6131 26.3112 10.0267C27.0794 8.54905 25.9572 7.66246 25.3664 7.48501C25.4844 7.72184 25.4844 7.95867 25.4257 8.01737ZM26.548 12.8639C28.025 12.036 27.0794 10.2635 26.8434 10.1455C26.7847 10.3229 26.6073 10.7952 26.0752 11.3863C26.3706 11.7412 26.548 12.2729 26.548 12.8639ZM16.2683 9.02204C17.3319 9.49502 18.4541 9.6718 19.5764 9.6718C22.6484 9.6718 24.7756 8.78588 24.9529 7.89862C25.071 7.1301 23.6533 6.65779 22.1763 6.53904C21.9396 6.77587 21.6442 6.89327 21.5262 6.89327C21.4675 6.89327 21.3488 6.83457 21.4675 6.77519C21.7042 6.65712 21.9403 6.42096 21.7042 6.00668C21.8816 6.00668 22.413 5.77052 22.4724 4.82523C22.4724 4.05672 22.1176 3.58374 21.7636 3.34758C21.7636 3.34758 21.6455 3.2295 21.7636 3.2295C21.8816 2.28353 21.2321 1.51502 20.1092 1.27887V1.16079C20.1679 1.16079 20.1679 1.10209 20.1679 1.10209C20.1092 0.865932 19.2817 0.747856 18.9276 1.04339C18.8689 1.10209 19.105 1.22084 19.1636 1.22084C19.2817 1.22084 19.341 1.33891 19.223 1.33891C18.5142 1.28021 17.3326 1.87127 17.3326 3.467C17.3913 3.467 17.746 3.4083 17.8647 3.4083C17.9827 3.46701 17.9234 3.58576 17.8647 3.58576C16.7418 3.64446 16.3284 5.59577 17.8053 6.24553C17.8053 6.24553 17.9234 6.30424 17.8053 6.36361C17.628 6.48169 17.51 6.71784 17.7467 6.8953C17.8647 6.8953 17.924 7.01337 17.8647 7.07275C17.8647 7.19083 17.6873 7.19083 17.5693 7.07275C16.8011 6.71784 15.9149 6.89529 15.2061 7.13145C15.7362 7.54438 16.0903 8.25352 16.2683 9.02204Z" fill="white"/>
<path fill-rule="evenodd" clip-rule="evenodd" d="M8.58759 4.0574C8.52824 4.1161 8.35087 3.93932 8.17417 3.82057C7.99679 3.76187 7.76074 3.76187 7.76074 3.70249C7.76074 3.70249 7.93812 3.64379 8.11482 3.64379C8.23284 3.64379 8.35154 3.70249 8.46957 3.70249C8.52824 3.82057 8.64627 3.99802 8.58759 4.0574ZM12.4865 32.6045C12.1317 32.4871 11.6003 32.4277 11.3049 32.4277V32.0141C11.6589 32.0734 12.1911 32.1328 12.6045 32.2502L12.4865 32.6045ZM12.7232 31.8366C12.1911 31.6598 12.073 31.6598 11.4822 31.6005V31.2462C12.1317 31.2462 12.3098 31.2462 12.8412 31.4244L12.7232 31.8366ZM21.1124 4.88462C21.0537 4.88462 20.9944 4.88461 20.935 4.94332C19.8714 4.76586 19.576 5.00269 18.9852 5.00269C18.9852 4.94331 18.9852 4.82524 18.8672 4.82524C18.8672 4.88394 18.8079 4.94332 18.8079 4.94332C18.6305 5.18015 18.5711 5.29755 18.6305 5.35692C18.6892 5.4163 18.8079 5.29754 18.8672 5.23884C18.9259 5.23884 19.1626 5.23885 19.3987 5.35692C19.576 5.475 19.9301 5.94798 20.2849 5.77053C20.5803 5.65245 20.8163 5.17947 20.9937 5.17947C21.1117 5.17947 21.2304 5.23817 21.2304 5.17947C21.2891 5.18014 21.1711 4.82591 21.1124 4.88462ZM20.2849 5.59443C19.9301 5.7125 19.7527 5.2989 19.458 5.18082C19.7534 5.12144 20.2849 5.06274 20.7576 5.12144C20.6396 5.18015 20.3442 5.53505 20.2849 5.59443ZM20.6983 2.16614C20.3442 2.22551 20.1082 2.69849 20.1082 3.28956C20.1668 3.64379 20.2855 3.9987 20.5216 4.17615C20.6396 4.23553 20.7583 4.29423 20.8763 4.29423C21.2311 4.23553 21.5258 3.76187 21.4671 3.17081C21.4671 2.81657 21.2898 2.46167 21.1131 2.34359C21.0608 2.28589 20.9966 2.24016 20.9251 2.20954C20.8535 2.17891 20.7761 2.16411 20.6983 2.16614Z" fill="#8A8A8A"/>
<path fill-rule="evenodd" clip-rule="evenodd" d="M21.171 3.82056C21.2303 3.70248 21.289 3.46633 21.289 3.1708C21.2303 2.87527 21.171 2.63911 20.9936 2.46166C20.9349 2.40228 20.8162 2.40228 20.7569 2.40228C20.4615 2.40228 20.2841 2.81589 20.3434 3.28887V3.40695C20.4028 3.11142 20.5208 2.87459 20.7569 2.81589C20.9936 2.81589 21.1703 3.11142 21.1703 3.46565L21.171 3.82056Z" fill="white"/>
<path fill-rule="evenodd" clip-rule="evenodd" d="M19.0447 2.22554C18.6899 2.28424 18.3945 2.75723 18.3945 3.34829C18.3945 3.70252 18.5126 3.99872 18.7493 4.23488C18.8673 4.29358 18.9853 4.35296 19.1627 4.35296C19.5175 4.35296 19.8129 3.82059 19.8129 3.23021C19.8129 2.8753 19.6948 2.57977 19.4588 2.40232C19.4065 2.34476 19.3425 2.29916 19.271 2.26865C19.1996 2.23814 19.1224 2.22344 19.0447 2.22554Z" fill="#8A8A8A"/>
<path fill-rule="evenodd" clip-rule="evenodd" d="M19.5168 3.76188C19.5755 3.58443 19.6349 3.40765 19.6349 3.2302C19.5755 2.93467 19.5168 2.69783 19.3395 2.52106C19.2801 2.46235 19.1621 2.40298 19.0441 2.46236C18.8073 2.46236 18.5713 2.87597 18.5713 3.34828C18.5713 3.52573 18.6306 3.70251 18.7487 3.82126C18.6893 3.76256 18.6893 3.70318 18.6893 3.5851C18.6893 3.23087 18.8667 2.93467 19.1027 2.93467C19.3395 2.93467 19.5162 3.2302 19.5162 3.5851L19.5168 3.76188Z" fill="white"/>
</g>
<defs>
<clipPath id="clip0_3_64">
<rect width="130" height="36" fill="white"/>
</clipPath>
</defs>
</svg>
