<svg width="130" height="36" viewBox="0 0 130 36" fill="none" xmlns="http://www.w3.org/2000/svg">
<path fill-rule="evenodd" clip-rule="evenodd" d="M0 8.5L9.25632 17.9967L9.293 18.0283L9.25632 18.0782L0.0609948 27.5001H1.68633L10.9124 18.0283L1.62534 8.50614L0 8.5ZM7.34389 8.5L16.6373 18.0283L7.41126 27.5001H5.77981L14.9753 18.0782L14.9995 18.0283L14.9753 17.9967L5.71244 8.50614L7.34389 8.5ZM8.57823 8.5H10.2036L19.4906 18.0283L10.2705 27.5001H8.64559L17.8285 18.0782L17.8653 18.0283L17.8285 17.9967L8.57823 8.5ZM11.4314 8.5L20.7185 18.0283L20.6878 18.0782L11.4988 27.5001H13.1239C13.1542 27.4707 22.3866 17.9967 22.3866 17.9967L31.6429 8.5H30.0116L21.5677 17.157L21.5374 17.1946L21.5007 17.157L20.957 16.6052L20.9138 16.5676L20.957 16.5299L28.7836 8.5H27.1523L20.1076 15.734L20.0711 15.6963L19.5273 15.1446L19.4906 15.1008L25.924 8.50614H24.2988L18.7206 14.2296L18.6777 14.2734L18.6409 14.2296L18.0972 13.6717L18.0606 13.6402L18.0972 13.6026L23.077 8.50614L21.4456 8.5L17.2907 12.769L17.2479 12.8001L17.2112 12.7625L16.6675 12.211L16.6308 12.1669L16.6675 12.1297L20.2053 8.50614H18.5859L15.8549 11.2895L15.8243 11.3333L15.7876 11.2895L13.0627 8.50614L11.4314 8.5ZM2.85921 8.50614H4.48462L13.7776 18.0283L4.55192 27.5001H2.9325L12.1097 18.0782L12.1526 18.0283L12.1097 17.9967L2.85921 8.50614Z" fill="#8A8A8A"/>
<path fill-rule="evenodd" clip-rule="evenodd" d="M47.6626 10.7504C43.7193 10.7504 40.514 14.0439 40.514 18.0969C40.514 22.1423 43.7193 25.4311 47.6626 25.4311C51.6077 25.4311 54.8113 22.1423 54.8113 18.0969C54.8113 14.0439 51.6144 10.7504 47.6626 10.7504ZM62.1919 10.7504L57.8662 16.8997V10.7565H55.4161V25.1804H57.8662V19.238L61.978 25.1804H65.0574L59.8272 18.1096L65.2651 10.7504H62.1919ZM70.1286 10.7504C74.0737 10.7504 77.2831 14.0425 77.2831 18.0846C77.287 22.1411 74.0785 25.4311 70.1286 25.4311C66.1795 25.4311 62.9705 22.1411 62.9741 18.0846C62.9741 14.0425 66.1795 10.7504 70.1286 10.7504ZM31.2393 10.8755H33.8666L36.83 17.1005L39.7869 10.8755H42.4141L37.9845 19.9149V25.3059H35.669V19.9149L31.2393 10.8755ZM77.8942 10.8755V25.3058H80.3991V19.4699H85.4459V25.3058H87.9451V10.8755H85.4459V16.9938H80.3991V10.8755H77.8942ZM93.6823 10.8755L88.4886 25.3058H91.1102L92.4111 21.6198H97.4641L98.747 25.3058H101.38L96.1874 10.8755H93.6823ZM101.906 10.8755V25.3058H104.411L104.453 15.8718L107.973 25.3058H110.307L113.82 15.8718L113.863 25.3058H116.374V10.8755H113.283L109.146 21.9397L104.991 10.8755H101.906ZM122.294 10.8755L117.101 25.3058H119.735L121.024 21.6198H126.077L127.372 25.3058H130L124.812 10.8755H122.294ZM70.1345 13.1448C67.4748 13.1448 65.3078 15.3616 65.3078 18.0846C65.3078 20.8169 67.4723 23.0305 70.1286 23.0305C72.7882 23.0305 74.9469 20.817 74.9433 18.0846C74.9433 15.3617 72.7959 13.1448 70.1345 13.1448ZM47.6626 13.1514C50.3237 13.1514 52.4771 15.3663 52.4771 18.0969C52.4771 20.818 50.3238 23.0367 47.6626 23.0367C45.0086 23.0367 42.848 20.8181 42.848 18.0969C42.848 15.3664 45.0085 13.1514 47.6626 13.1514ZM123.554 14.6807L125.319 19.5951H121.782L123.554 14.6807ZM94.929 14.6869L96.7003 19.5951H93.1687L94.929 14.6869Z" fill="#8A8A8A"/>
</svg>
