<svg width="562" height="80" viewBox="0 0 562 80" fill="none" xmlns="http://www.w3.org/2000/svg">
<g clip-path="url(#clip0_2515_875)">
<path fill-rule="evenodd" clip-rule="evenodd" d="M0 0L40.0158 39.9862L40.1743 40.1191L40.0158 40.3292L0.263685 80.0002H7.29014L47.1749 40.1191L7.02645 0.0258434L0 0ZM31.7482 0L71.9242 40.1191L32.0395 80.0002H24.9866L64.7392 40.3292L64.8441 40.1191L64.7392 39.9862L24.6953 0.0258434L31.7482 0ZM37.0843 0H44.1108L84.2595 40.1191L44.4003 80.0002H37.3756L77.074 40.3292L77.2331 40.1191L77.074 39.9862L37.0843 0ZM49.4188 0L89.5676 40.1191L89.4349 40.3292L49.71 80.0002H56.7356C56.8666 79.8766 96.779 39.9862 96.779 39.9862L136.795 0H129.742L93.2389 36.4507L93.1076 36.6089L92.9491 36.4507L90.5987 34.1273L90.412 33.9689L90.5987 33.8102L124.434 0H117.381L86.9268 30.459L86.7688 30.3003L84.4178 27.9772L84.2593 27.7929L112.071 0.0258434H105.046L80.9306 24.1245L80.7451 24.3091L80.5862 24.1245L78.2355 21.7756L78.0773 21.643L78.2355 21.4846L99.7636 0.0258434L92.711 0L74.7489 17.9747L74.5642 18.1058L74.4054 17.9474L72.0547 15.6254L71.8961 15.4398L72.0547 15.283L87.349 0.0258434H80.3484L68.5422 11.7453L68.4095 11.9298L68.2512 11.7453L56.4711 0.0258434L49.4188 0ZM12.3606 0.0258434H19.3873L59.5617 40.1191L19.6783 80.0002H12.6774L52.3511 40.3292L52.5366 40.1191L52.3511 39.9862L12.3606 0.0258434Z" fill="#E01E28"/>
<path fill-rule="evenodd" clip-rule="evenodd" d="M206.05 9.47656C189.003 9.47656 175.146 23.3438 175.146 40.4092C175.146 57.4422 189.003 71.2898 206.05 71.2898C223.105 71.2898 236.954 57.4422 236.954 40.4092C236.954 23.3438 223.134 9.47656 206.05 9.47656ZM268.861 9.47656L250.161 35.3683V9.50212H239.569V70.2341H250.161V45.2138L267.937 70.2341H281.249L258.639 40.4625L282.147 9.47656H268.861ZM303.172 9.47656C320.227 9.47656 334.102 23.3379 334.102 40.3572C334.119 57.4374 320.248 71.2898 303.172 71.2898C286.1 71.2898 272.228 57.4374 272.243 40.3572C272.243 23.3379 286.1 9.47656 303.172 9.47656ZM135.051 10.0033H146.409L159.22 36.2135L172.003 10.0033H183.361L164.211 48.0639V70.7628H154.201V48.0639L135.051 10.0033ZM336.744 10.0033V70.7625H347.572V46.1902H369.39V70.7625H380.195V10.0033H369.39V35.7644H347.572V10.0033H336.744ZM404.997 10.0033L382.544 70.7625H393.877L399.501 55.2422H421.346L426.892 70.7625H438.276L415.827 10.0033H404.997ZM440.547 10.0033V70.7625H451.378L451.561 31.0401L466.778 70.7625H476.867L492.053 31.0401L492.24 70.7625H503.093V10.0033H489.73L471.848 56.5891L453.887 10.0033H440.547ZM528.689 10.0033L506.24 70.7625H517.624L523.197 55.2422H545.041L550.642 70.7625H561.999L539.573 10.0033H528.689ZM303.198 19.558C291.7 19.558 282.332 28.892 282.332 40.3572C282.332 51.8617 291.689 61.1822 303.172 61.1822C314.67 61.1822 324.002 51.862 323.987 40.3572C323.987 28.8923 314.703 19.558 303.198 19.558ZM206.05 19.5858C217.554 19.5858 226.864 28.9119 226.864 40.4092C226.864 51.8665 217.555 61.208 206.05 61.208C194.577 61.208 185.236 51.8668 185.236 40.4092C185.236 28.9122 194.576 19.5858 206.05 19.5858ZM534.133 26.0251L541.763 46.7175H526.472L534.133 26.0251ZM410.387 26.0512L418.044 46.7175H402.776L410.387 26.0512Z" fill="#231E20"/>
</g>
<defs>
<clipPath id="clip0_2515_875">
<rect width="562" height="80" fill="white"/>
</clipPath>
</defs>
</svg>
