<svg width="288" height="80" viewBox="0 0 288 80" fill="none" xmlns="http://www.w3.org/2000/svg">
<g clip-path="url(#clip0_2515_884)">
<path fill-rule="evenodd" clip-rule="evenodd" d="M17.7148 68.7807H275.293V25.1738H17.7148V68.7807Z" fill="black"/>
<path fill-rule="evenodd" clip-rule="evenodd" d="M227.39 60.2419H17.7148V62.8688H226.474L227.39 60.2419ZM95.3283 35.2875L88.3911 45.7952C88.3911 45.7952 88.9155 40.2774 88.9155 38.9655C89.0455 37.9144 88.9155 35.2875 86.4278 35.2875H75.5641L68.4969 54.7271H77.0044L82.1098 40.6733L81.0624 54.7271H88.654L97.9459 40.9342L92.8406 54.7271H101.348L108.547 35.2875H95.3283ZM141.661 54.3328C141.136 54.4647 137.996 55.12 134.462 55.12C128.442 55.3838 123.076 52.8889 123.076 48.5541C122.946 40.8052 130.667 36.6009 136.425 35.5499C138.913 35.0236 143.886 34.3668 148.728 35.5499L145.85 42.3811C145.063 40.5413 142.97 40.5413 142.052 40.5413C140.091 40.4094 138.257 41.0661 137.078 41.5924C134.199 42.9044 131.713 47.1072 135.77 48.8135C137.994 49.7326 140.875 48.9455 143.884 48.5526L141.661 54.3328ZM228.829 54.7271H219.539L226.603 35.2875H236.029L228.829 54.7271ZM116.138 54.7271H106.846L113.914 35.2875H123.337L116.138 54.7271ZM166.792 35.2875L164.306 42.2492H159.462L162.079 35.2875H153.177L145.979 54.7271H154.879L157.365 48.1583H162.079L159.723 54.7271H168.624L175.821 35.2875H166.792ZM209.852 48.2902L214.562 35.2875H205.403L198.334 54.7271H216.658L219.013 48.2902H209.852ZM259.194 35.2875L254.222 48.6831C254.353 47.3711 254.616 41.9853 254.745 38.9655C254.876 37.652 254.616 36.7314 253.96 36.0747C253.176 35.2875 252.258 35.2875 252.258 35.2875H241.396L234.197 54.7271H242.182L247.153 40.9342L246.63 54.7271H259.85L267.046 35.2875H259.194ZM184.721 49.4732L185.506 47.3711H195.717L197.418 42.5101H187.208L187.995 40.4094H198.726L200.557 35.2875H181.056L173.859 54.7271H193.753L195.585 49.4732H184.721Z" fill="white"/>
<path fill-rule="evenodd" clip-rule="evenodd" d="M69.2854 44.2186C69.8098 43.2994 69.1554 41.5916 67.9765 40.2767C66.9291 38.9647 65.4888 38.5689 65.3588 37.9121C66.7992 35.0228 65.2274 32.5263 63.0026 31.4767C63.0689 30.7807 62.9598 30.0792 62.6854 29.4365C62.411 28.7938 61.9801 28.2307 61.4323 27.7987C61.9567 26.6157 62.6111 23.332 60.1234 21.3633C61.1708 17.2924 56.9813 14.9279 54.7566 14.7959C53.7107 14.0073 52.2704 13.4825 50.3056 13.3505C51.7459 11.2499 51.353 8.49098 49.6512 6.91512C49.7827 4.68252 48.2124 2.58037 45.9861 1.79169C45.2017 -0.0465718 41.0122 0.21583 40.6193 1.92364C38.133 2.84277 36.6942 5.46971 36.9557 7.9647C35.5154 9.54057 35.5154 12.1675 36.9557 14.0058C35.6468 13.8753 33.8136 14.2697 32.6362 14.7944H32.5047C31.4573 14.2697 30.41 14.0058 29.2326 14.2697C28.9711 14.0058 28.1852 13.7434 27.6623 13.6129C27.2632 12.9299 26.6709 12.3814 25.9605 12.0371C25.699 10.854 24.7816 9.93491 23.8672 9.54057C23.9972 8.62144 23.6058 7.57036 23.3428 7.04408C22.8184 6.25689 22.9498 4.94342 23.0813 4.67953C23.7357 4.02279 23.2113 3.36605 22.9513 3.10366C21.6425 1.79019 20.3336 2.44692 19.9407 3.10366C18.6333 0.739111 17.193 0.214325 16.4071 0.476719C15.2282 -0.442411 13.5279 0.214327 13.5279 1.2639C12.7435 1.79019 12.2191 2.05259 13.3979 4.15324C13.1365 8.48799 13.6594 9.80146 16.5401 12.166C15.6227 13.0851 15.2312 14.9234 16.0156 16.3688C15.7542 18.4695 16.933 20.5716 18.3734 21.6227C18.7663 24.644 21.644 26.3503 23.6087 26.7446C24.9161 28.7148 26.7494 29.634 28.5827 29.7659C28.7126 30.685 28.9756 31.4737 29.4985 32.2609C29.1056 33.9687 29.1056 35.5446 29.6285 36.99C28.3197 38.4339 27.7967 40.6695 28.4497 42.9006C26.8794 44.7404 26.3564 47.7587 27.4038 50.2566C27.4038 50.2566 27.0108 50.9134 26.7494 51.5686C25.702 52.0964 24.6561 53.2764 24.1317 54.8508C23.6087 56.0338 23.8702 57.6097 24.1317 58.9246C22.4299 60.3686 21.3825 64.0466 24.3932 66.9374C23.7387 69.0366 22.2999 70.8763 20.5966 73.1104C19.4192 74.6863 19.1578 75.4735 20.5966 77.3132C21.644 78.7571 23.6072 79.9402 25.309 79.9402C28.4497 80.0721 30.6744 79.4154 30.9374 77.0493C31.1989 75.7374 30.283 72.9785 30.283 72.3232C30.1515 71.665 30.4129 70.6154 31.0674 68.9091C33.9465 68.2509 35.3869 66.1502 35.6483 64.0481C37.7431 62.8651 39.3134 60.3701 38.5275 57.6112C38.9204 57.2183 39.0519 56.824 39.3134 56.1673C39.3134 57.3503 40.0978 58.1375 40.4908 58.9261C39.3134 61.9459 40.8837 64.7048 42.7155 65.8878C39.5749 70.485 42.977 72.7176 43.8944 73.6367C45.0717 74.6878 45.2032 76.6595 47.0365 77.3147C48.6068 77.8395 53.5807 77.3147 54.4966 75.2126C54.7581 74.6878 55.0195 74.0325 54.7581 73.6367C54.7581 72.0608 53.8422 71.0098 52.1419 69.9587C50.1786 68.9106 50.1786 69.1715 49.2612 66.2807C52.2719 64.8368 52.7963 61.4226 52.6648 60.1077C54.7581 57.4807 54.6281 55.2496 53.4507 53.8057C53.8437 52.6227 53.7122 51.7036 53.4507 50.7829C55.2825 49.2071 56.0684 46.844 55.414 44.346C56.4614 42.7702 56.7228 41.0639 56.3299 39.0936C57.2458 40.5391 58.6846 41.0623 60.2549 41.0623C60.2549 41.0623 60.3864 41.4582 60.5164 41.7191C59.992 42.6382 60.2549 43.6893 61.4323 44.478C61.5638 45.0058 61.8253 45.2652 62.0867 45.5291C62.0867 45.9249 63.1341 47.6312 64.3115 46.7121C64.4414 46.7121 65.7518 45.7929 65.7518 45.7929C66.9292 46.7136 69.5468 45.9264 69.2854 44.2186Z" fill="#0C0E0F"/>
<path fill-rule="evenodd" clip-rule="evenodd" d="M57.1119 35.55C60.3841 35.2876 63.5247 31.6096 60.5141 28.7188C60.1211 29.3755 59.2052 30.0322 58.5508 30.2946C58.4208 31.74 57.5034 32.9216 56.9805 33.5783C56.9805 34.1061 57.1119 35.4195 57.1119 35.55Z" fill="white"/>
<path fill-rule="evenodd" clip-rule="evenodd" d="M62.4781 32.7898C61.6922 34.8919 59.5975 36.0735 57.1113 36.4678C56.7183 38.1756 58.9445 40.804 62.3466 39.2267C64.8329 38.1756 65.7503 34.2352 62.4781 32.7898ZM61.5622 42.116C61.3008 42.3799 61.3008 43.0352 61.6922 43.428C61.6922 43.299 61.9537 42.5089 62.0852 42.248C61.9537 41.9841 61.6922 41.9841 61.5622 42.116ZM63.6555 43.6919C63.524 43.299 63.6555 42.7728 63.0011 42.6408C62.3466 42.3799 62.3467 44.4806 62.7396 44.3486C63.0011 44.0877 63.2625 43.8238 63.6555 43.6919ZM64.5714 43.9558C63.6555 44.2197 63.0011 44.8749 63.3925 45.3997C63.5225 45.6636 63.654 45.6636 64.1784 45.2677C64.4399 45.1388 64.9628 44.743 65.0943 44.611C64.9643 44.2182 64.5714 43.9558 64.5714 43.9558ZM65.3573 39.8834C65.0958 39.753 64.5729 39.3586 64.3099 38.9643C63.6555 39.621 62.2152 40.4082 61.5622 40.5402C61.6922 40.5402 61.8237 41.1969 61.9552 41.4593C62.2167 41.4593 62.4796 41.7202 62.7396 41.9841C63.0011 41.8521 63.917 41.9841 64.1799 42.9032C64.5729 43.1671 65.3573 43.5599 65.6188 43.8223C66.6661 45.1373 67.4506 45.0054 67.7135 44.7415C68.6294 44.0847 67.3206 43.4265 66.6661 42.5074C66.2732 42.1145 65.2258 40.6706 65.2258 40.2763C65.2258 40.1443 65.4873 40.2763 65.7502 40.5402C65.7502 40.6721 67.1891 42.3799 67.975 43.0351C67.3206 40.8041 65.3573 39.8834 65.3573 39.8834ZM44.6772 36.8621C57.1113 36.7302 58.6816 29.3742 56.9798 26.4863C53.1847 30.4267 40.4877 32.6593 34.2065 27.6679C33.0291 28.9813 31.4573 29.3757 30.1484 29.6381C30.5414 33.3146 37.2171 36.9941 44.6772 36.8621Z" fill="white"/>
<path fill-rule="evenodd" clip-rule="evenodd" d="M36.2984 21.2337C36.5599 23.7287 35.514 25.9613 34.9896 26.7499C36.1684 27.6691 38.5232 29.3769 43.89 29.5088C52.0061 29.6393 60.6436 25.6989 55.8011 19.0011C53.7079 21.7585 43.3671 24.123 36.2984 21.2337ZM25.5677 20.445C27.5309 18.6052 27.6609 16.2422 26.745 14.5344C26.4836 14.272 26.2206 13.8776 25.8291 13.6152C25.4362 17.0294 20.5938 19.6578 17.4531 17.4252C18.6305 22.2832 23.4729 22.4152 25.5677 20.445Z" fill="white"/>
<path fill-rule="evenodd" clip-rule="evenodd" d="M29.4963 23.727C32.3754 20.4433 29.4963 15.4518 28.1874 15.1895C29.1033 20.049 24.2609 23.8575 19.9414 22.0192C20.9873 25.0405 26.0927 27.5355 29.4963 23.727Z" fill="white"/>
<path fill-rule="evenodd" clip-rule="evenodd" d="M25.5703 26.7493C28.0565 29.3763 34.7322 29.2458 35.1252 23.0713C35.3867 18.8685 33.5549 16.504 30.6742 15.7168C34.0778 22.1522 30.0198 26.6174 25.5703 26.7493ZM30.8057 33.3152C29.6268 40.4088 39.0517 42.6399 44.6786 42.508C54.2334 42.1151 56.3282 37.518 55.8038 34.7606C49.7825 39.4897 36.957 38.9649 30.8057 33.3152Z" fill="white"/>
<path fill-rule="evenodd" clip-rule="evenodd" d="M35.6446 48.2892C40.75 49.3403 44.8065 46.9742 44.8065 43.5601C42.3188 43.5601 34.3358 43.4282 30.5407 38.1758C27.923 41.8523 31.0651 46.9742 35.6446 48.2892Z" fill="white"/>
<path fill-rule="evenodd" clip-rule="evenodd" d="M42.5827 48.4216C38.0017 50.7846 31.7189 49.0783 29.3627 44.2188C25.9606 49.6016 31.5874 54.4626 35.7755 54.1987C40.8809 53.9393 42.3212 50.6527 42.5827 48.4216Z" fill="white"/>
<path fill-rule="evenodd" clip-rule="evenodd" d="M28.4493 51.3125C26.8789 54.2003 28.8422 57.3536 30.937 58.1422C35.3864 59.8501 38.3971 56.9592 38.1356 54.8571C34.6005 55.6458 30.9355 54.5947 28.4493 51.3125ZM24.9142 60.1095C22.8209 61.8203 24.2598 66.4144 27.4019 67.4655C31.8514 69.0413 33.8146 66.0216 34.0761 64.4457C32.8987 64.7066 27.7948 65.7592 24.9142 60.1095Z" fill="white"/>
<path fill-rule="evenodd" clip-rule="evenodd" d="M30.6715 58.9299C28.3152 57.7469 26.8749 55.9071 26.7449 53.4121C23.3428 56.8262 26.2205 62.2121 29.3626 63.2631C35.6454 65.4942 37.8701 60.1084 37.3472 58.534C34.8595 60.2419 31.8488 59.5851 30.6715 58.9299ZM53.1833 74.5596L53.4448 74.6915C52.9204 75.7426 49.1253 76.6617 47.555 76.0035C45.7217 75.0874 46.1147 74.0363 44.9373 72.9837C42.3196 70.4887 42.7125 69.4377 43.1055 68.1227C43.2355 67.4659 43.4985 67.0716 44.0214 66.4149C45.8532 67.0716 46.6391 66.9427 48.2094 66.5468C48.2094 66.6788 48.2094 67.0716 48.3409 67.2035C47.162 67.3355 46.1147 67.5994 46.1147 67.5994L46.5076 68.5185C46.5076 68.5185 47.4235 68.2546 48.6009 68.1227C48.6009 68.1227 48.7323 68.7809 48.8623 69.0418C47.815 69.0418 46.8991 69.4376 46.8991 69.4376L47.1605 70.2248C47.1605 70.2248 48.5994 69.832 49.6467 69.9609C50.6941 70.8801 54.8821 71.9311 52.7889 74.1667C52.0045 74.9539 50.0397 75.2148 48.4694 75.2148V75.4787C48.7338 75.8745 51.613 76.0035 53.1833 74.5596ZM51.2201 61.029C49.9414 61.9875 48.3627 62.454 46.7706 62.344C44.5458 62.344 42.974 61.4249 41.6652 59.981C40.8793 63.9199 43.367 65.7596 46.1147 65.8901C51.0886 66.154 51.2201 61.5568 51.2201 61.029Z" fill="white"/>
<path fill-rule="evenodd" clip-rule="evenodd" d="M46.6419 61.4249C52.0088 61.5568 53.5791 57.0901 52.5317 55.1199C49.5211 58.7979 42.5839 58.0108 41.1436 53.4121C39.3133 56.6958 42.3224 61.4249 46.6419 61.4249Z" fill="white"/>
<path fill-rule="evenodd" clip-rule="evenodd" d="M47.4265 56.5634C50.0442 56.5634 52.9234 54.7266 52.269 51.4415C49.2583 53.4117 45.4618 53.2812 42.8456 51.3125C42.5841 51.7053 42.1912 52.3606 41.9297 52.6245C42.3211 55.1195 44.8089 56.5634 47.4265 56.5634Z" fill="white"/>
<path fill-rule="evenodd" clip-rule="evenodd" d="M44.1542 47.3697C44.0242 47.5017 43.8927 47.6336 43.7612 47.6336C43.7612 48.5528 43.4998 49.7328 43.2383 50.5215C46.9033 53.6762 54.6249 51.7045 54.102 45.2676C51.4843 47.8945 47.2963 48.5528 44.1542 47.3697Z" fill="white"/>
<path fill-rule="evenodd" clip-rule="evenodd" d="M45.8546 43.5598C45.8546 44.7428 45.4616 45.7939 44.8087 46.7145C49.5196 48.1585 55.4109 45.6635 55.148 40.0137C53.5777 41.4607 50.697 43.2989 45.8546 43.5598ZM22.1653 16.8976C25.6989 15.3217 25.436 11.6437 23.3427 10.7246C22.8183 11.2494 22.9497 12.4324 22.9497 12.6933C22.9497 13.2196 22.0338 13.6124 21.9024 13.35C21.6409 12.9557 22.4268 12.5628 22.0338 11.6422C21.7724 10.855 22.6883 10.4607 22.6883 9.14571C22.6883 8.35853 22.0338 7.17699 22.0338 6.9131C21.6409 6.12442 21.6409 4.68051 22.1653 4.02378C21.7724 3.62944 21.2479 3.23509 20.8565 4.02378C20.2021 4.94291 20.4635 6.12443 20.8565 7.04506C20.8565 7.177 20.2021 7.04505 19.9406 8.09613L19.6791 8.49047H19.4177C19.2862 7.70329 19.5476 7.30894 19.8106 6.78416C19.6791 6.65221 19.4177 5.99548 19.4177 4.81396C18.8932 3.23809 17.7159 1.79267 16.9299 1.66222C17.5844 2.7133 18.7632 4.94591 18.8932 5.2083C19.1547 5.86503 18.6317 5.99547 18.6317 5.99547C17.7159 4.15572 16.7985 2.44941 16.0126 1.66072C15.4896 1.26638 14.9667 1.004 14.7052 1.39834C14.9667 1.39834 15.2281 1.66073 15.4896 1.92462C16.2755 2.9742 17.9773 6.38981 17.9773 6.38981C17.9773 6.38981 17.8473 6.52027 17.5844 6.52027C17.3229 6.52027 17.0599 5.99547 16.6685 5.07635C16.144 4.28916 15.3596 2.97419 14.9667 2.57985C14.5737 2.05506 14.3123 2.18551 14.0508 2.44941C14.3123 2.84375 14.5752 3.36854 14.5752 3.76288C15.2296 3.50048 16.0141 4.15722 16.1455 4.81396C16.1455 5.34025 16.407 7.04655 16.8 7.57284C16.6685 7.57284 16.2755 7.83524 16.2755 7.83524C15.8826 7.4409 15.6211 5.60264 15.4896 4.9459C15.4896 4.68351 15.3596 4.41961 14.9667 4.28916C14.7052 4.28916 14.7052 4.41961 14.7052 4.55156C14.4437 8.22808 14.7052 9.14721 17.9773 11.6437C18.2388 11.7741 18.5018 12.3004 18.7632 12.8267C19.0247 13.2211 19.4176 13.8778 20.2021 13.7458L20.4635 14.0082C19.8091 14.665 18.7617 14.2721 18.5003 14.0082C18.3703 13.7458 17.8458 12.9572 17.8458 12.9572C15.4896 15.3202 18.6317 18.6039 22.1653 16.8976ZM25.8304 67.7286C24.5216 70.6194 23.2127 71.9314 21.7739 74.0335C20.7265 75.3455 21.1194 76.0007 21.7739 76.9213C23.0827 78.3683 25.3075 79.1554 27.0093 78.6292V78.5002C24.9145 78.6292 23.2127 77.842 22.2983 76.53L22.4283 76.3981C24.7845 78.2378 27.9252 77.71 29.104 77.0548C29.497 76.9229 29.627 76.53 29.627 76.1357C29.497 75.0876 28.9725 73.3768 28.8425 72.4577C28.7111 71.8009 28.9725 70.3585 29.627 68.7826C28.5781 68.9116 26.4848 68.6477 25.8304 67.7286ZM56.3268 17.8167C58.0286 18.9982 58.2886 21.3628 58.2886 22.2819C59.9904 18.9982 57.5042 17.028 56.1953 16.6337C56.4568 17.16 56.4568 17.6863 56.3268 17.8167ZM58.813 28.5869C62.0852 26.7471 59.9904 22.8082 59.4675 22.5458C59.3375 22.9401 58.9445 23.9897 57.7657 25.3032C58.4201 26.0919 58.813 27.2734 58.813 28.5869ZM36.0397 20.0493C38.3959 21.1004 40.8821 21.4932 43.3683 21.4932C50.174 21.4932 54.8865 19.5245 55.2795 17.5528C55.5409 15.845 52.4003 14.7954 49.1282 14.5315C48.6037 15.0578 47.9493 15.3187 47.6878 15.3187C47.5579 15.3187 47.2949 15.1883 47.5578 15.0563C48.0823 14.7939 48.6052 14.2691 48.0823 13.3485C48.4752 13.3485 49.6526 12.8237 49.7841 10.7231C49.7841 9.01525 48.9982 7.96419 48.2138 7.4394C48.2138 7.4394 47.9523 7.177 48.2138 7.177C48.4752 5.07485 47.0364 3.36704 44.5487 2.84225V2.57985C44.6787 2.57985 44.6787 2.44941 44.6787 2.44941C44.5487 1.92462 42.7154 1.66223 41.931 2.31896C41.801 2.44941 42.324 2.7133 42.4539 2.7133C42.7154 2.7133 42.8469 2.97569 42.5854 2.97569C41.0151 2.84524 38.3974 4.15871 38.3974 7.70478C38.5274 7.70478 39.3133 7.57434 39.5763 7.57434C39.8377 7.70478 39.7063 7.96868 39.5763 7.96868C37.0886 8.09913 36.1727 12.4354 39.4448 13.8793C39.4448 13.8793 39.7063 14.0097 39.4448 14.1417C39.0518 14.4041 38.7904 14.9289 39.3148 15.3232C39.5763 15.3232 39.7078 15.5856 39.5763 15.7176C39.5763 15.9799 39.1833 15.9799 38.9219 15.7176C37.2201 14.9289 35.2568 15.3232 33.6865 15.848C34.8608 16.7656 35.6453 18.3415 36.0397 20.0493Z" fill="white"/>
<path fill-rule="evenodd" clip-rule="evenodd" d="M19.0232 9.01766C18.8917 9.1481 18.4988 8.75526 18.1073 8.49137C17.7143 8.36092 17.1914 8.36093 17.1914 8.22898C17.1914 8.22898 17.5844 8.09853 17.9758 8.09853C18.2373 8.09853 18.5003 8.22898 18.7617 8.22898C18.8917 8.49138 19.1532 8.88571 19.0232 9.01766ZM27.6607 72.4556C26.8748 72.1947 25.6974 72.0627 25.043 72.0627V71.1436C25.8274 71.2755 27.0063 71.4075 27.9222 71.6684L27.6607 72.4556ZM28.1851 70.7493C27.0063 70.3564 26.7448 70.3564 25.4359 70.2245V69.4373C26.8748 69.4373 27.2692 69.4373 28.4466 69.8331L28.1851 70.7493ZM46.7704 10.8559C46.6405 10.8559 46.509 10.8559 46.3775 10.9864C44.0213 10.592 43.3668 11.1183 42.058 11.1183C42.058 10.9864 42.058 10.724 41.7965 10.724C41.7965 10.8544 41.665 10.9864 41.665 10.9864C41.2721 11.5127 41.1406 11.7735 41.2721 11.9055C41.4021 12.0374 41.665 11.7735 41.7965 11.6431C41.9265 11.6431 42.4509 11.6431 42.9739 11.9055C43.3668 12.1679 44.1513 13.219 44.9372 12.8246C45.5916 12.5622 46.1145 11.5112 46.5075 11.5112C46.7689 11.5112 47.0319 11.6416 47.0319 11.5112C47.1619 11.5127 46.9004 10.7255 46.7704 10.8559ZM44.9372 12.4333C44.1513 12.6957 43.7583 11.7765 43.1054 11.5141C43.7598 11.3822 44.9372 11.2518 45.9845 11.3822C45.7231 11.5127 45.0686 12.3013 44.9372 12.4333ZM45.8531 4.81486C45.0686 4.94681 44.5457 5.99787 44.5457 7.31134C44.6757 8.09853 44.9387 8.88721 45.4616 9.28155C45.7231 9.4135 45.986 9.54395 46.2475 9.54395C47.0334 9.4135 47.6863 8.36093 47.5563 7.04746C47.5563 6.26028 47.1634 5.4716 46.7719 5.2092C46.6561 5.08098 46.514 4.97936 46.3554 4.91131C46.1968 4.84325 46.0255 4.81035 45.8531 4.81486Z" fill="#0C0E0F"/>
<path fill-rule="evenodd" clip-rule="evenodd" d="M46.9015 8.49157C47.033 8.22917 47.163 7.70439 47.163 7.04765C47.033 6.39092 46.9015 5.86613 46.5086 5.47179C46.3786 5.33984 46.1156 5.33984 45.9841 5.33984C45.3297 5.33984 44.9368 6.25897 45.0682 7.31004V7.57244C45.1997 6.91571 45.4612 6.38942 45.9841 6.25897C46.5086 6.25897 46.9 6.9157 46.9 7.70288L46.9015 8.49157Z" fill="white"/>
<path fill-rule="evenodd" clip-rule="evenodd" d="M42.1903 4.94575C41.4044 5.0762 40.75 6.12728 40.75 7.44075C40.75 8.22793 41.0115 8.88616 41.5359 9.41094C41.7974 9.54139 42.0588 9.67334 42.4518 9.67334C43.2377 9.67334 43.8921 8.49032 43.8921 7.17835C43.8921 6.38967 43.6307 5.73294 43.1077 5.3386C42.992 5.21068 42.8501 5.10936 42.6918 5.04156C42.5335 4.97376 42.3624 4.94108 42.1903 4.94575Z" fill="#0C0E0F"/>
<path fill-rule="evenodd" clip-rule="evenodd" d="M43.2354 8.3605C43.3654 7.96616 43.4968 7.57331 43.4968 7.17897C43.3654 6.52224 43.2354 5.99595 42.8424 5.60311C42.7109 5.47266 42.4495 5.34071 42.188 5.47266C41.6636 5.47266 41.1406 6.3918 41.1406 7.44137C41.1406 7.83571 41.2721 8.22855 41.5336 8.49244C41.4021 8.362 41.4021 8.23005 41.4021 7.96766C41.4021 7.18047 41.795 6.52224 42.318 6.52224C42.8424 6.52224 43.2339 7.17898 43.2339 7.96766L43.2354 8.3605Z" fill="white"/>
</g>
<defs>
<clipPath id="clip0_2515_884">
<rect width="288" height="80" fill="white"/>
</clipPath>
</defs>
</svg>
